<svg xmlns="http://www.w3.org/2000/svg" viewBox="0 0 495.63 453"><g data-name="Layer 2"><path d="M144.25 123.77C126 123.11 38.19 116.28 7 91.09c0 0 82.35-71.89 205.87-56.21 0 0 216.32 20.92 76.46 180.93 184.31 90.95 40.75 173.3-42.06 76.57m-66.39-61.31C93.52 366.71 293.26 413.29 315.17 338.13M12.19 98.07C60.46 209 202.64 263.55 289.33 215.81M298.45 446s9-13.59 12.54-17.73c4.34-5.11 19.09-18.83 19.09-18.83s-6.61-11.3-9.34-14.69c-4.64-5.75-26.69-26.66-26.69-26.66m-143.88 37.47s11.18 14.49 15.42 18.86c5.36 5.54 23.26 20.27 23.26 20.27s10.46-17.38 13.37-23.47c4.79-10 16.23-41.45 16.23-41.45M262.12 7s-13.47 16.4-18.05 33.55m52.87-25.14s-17.55 11.92-26.8 27.08m58-8.75s-18.18 8.39-31.16 22.47m52.24 1.3s-15.35.24-28.33 14.32m38.79 19s-8.73-.94-20.91 3.14M379.05 300l22.72 6.37c6.73.69 9.42-12.75 10.9-19.36l10.08-63.79 17.88-67.35c2.64-11.84-22.61-13.31-34.15-17.07l-67.75-13.2m102.09 26s25.19 34.77 47.81 48.63m-229.26-93.9s-4.36 1.13-6.28 4.93M247.3 45c-135.2 26.86-122.09 139.26-44 185.62m100.18-80C325 121 318.56 78.85 296 62.49s-68.1-2.79-89.62 26.82-9 59.2 13.49 75.57 62.13 15.3 83.62-14.31zM158.9 32.65c-32.19 32-45.16 60-50.14 87.12M93.42 46.3C75.31 71.66 68 86.77 62.74 111.72" fill="none" stroke="#010101" stroke-linecap="round" stroke-linejoin="round" stroke-width="14" data-name="Layer 1"/></g></svg>