<svg id="Layer_1" data-name="Layer 1" xmlns="http://www.w3.org/2000/svg" viewBox="0 0 1251.02 1126.64"><defs><style>.cls-1{fill:#1d1d1b}.cls-2,.cls-3{fill:none;stroke:#1d1d1b;stroke-linecap:round;stroke-width:14px}.cls-2{stroke-miterlimit:10}.cls-3{stroke-linejoin:round}</style></defs><path class="cls-1" d="M782.13 980.87a17.91 17.91 0 0113.74 6.13 12.4 12.4 0 01.57 16.08c-7.65 10-63.7 51.16-65 52.1-24.29 17.39-80.73 52.15-100 63.75a8.62 8.62 0 01-11.27-2.1c-7.07-9.14-13.87-18.51-21.77-27-5.25-5.63-5.27-7.63 1.85-10.82 9.78-4.38 18.86-10 28.23-15 18.65-10.11 37.07-20.6 54.7-32.43a558.6 558.6 0 0149.05-28.58c12.9-6.52 25.7-13.21 38.76-19.43a26.11 26.11 0 0111.14-2.72m0-14A39.78 39.78 0 00765 971c-9.84 4.68-19.63 9.67-29.08 14.49q-5 2.55-10 5.07a578.29 578.29 0 00-50.54 29.41c-18.48 12.4-37.45 23-53.56 31.74-2.88 1.56-5.72 3.17-8.48 4.72-6.43 3.62-12.51 7-18.8 9.87-3.2 1.43-11.7 5.23-13.54 14.35s4.48 15.9 7.18 18.79c5.86 6.29 11.13 13.19 16.71 20.49 1.4 1.84 2.8 3.67 4.22 5.5a22.6 22.6 0 0029.56 5.53c14.69-8.85 74.86-45.71 100.9-64.36.91-.64 15.42-11.28 30.53-22.92 31.57-24.3 35.72-29.75 37.49-32.08a26.39 26.39 0 00-1.24-33.85 31.94 31.94 0 00-24.21-10.84z" transform="translate(-11.79 -7.52)"/><path class="cls-2" d="M699.83 973.45c7.62-2.68 18.9-8.22 23-11.17a98 98 0 0013.53-9.82c32.16-25.73 43.66-68 35.13-107.47-6.16-32.72-29.93-58.74-54.52-79.61-7.56-5.07-13.69-12-22.63-15M438 932.59c10.56 7.88 24.66 25.3 34.78 33.63 15.63 12.63 27.32 29.28 43.12 41.75 13.47 12.66 26.36 26 39.87 38.7 7.51 7.38 14.73 15.08 22.53 22.17 3 2.3 5.71 7.21 9.91 4.54 25-13.74 50-27.6 74.75-41.78 11.4-7 21.25-16.23 33.43-22 11.83-6.61 5-12.45 3.54-22.81-2-6.64-8.56-23.88-11-30.36" transform="translate(-11.79 -7.52)"/><path class="cls-3" d="M538.77 835.13A207.17 207.17 0 00517 850.39c-30.1 22.28-57.8 47.67-80.93 77.23-12.2 14.12-22.17 30-33.68 44.59-4.77 4.23-6 13.4-12.22 15.44-.78-.13-1.38-.89-1.72-2.31-1.7-7-3.45-14-4.69-21.06-2.45-7 1-22.71-6.81-25.61-12.1 2.38-20.73 14.41-30.24 21.65-11.94 10.13-9.9-1.63-9.59-10.69-1.09-8.35 12.43-31.51-.38-33.09a4.87 4.87 0 00-3.63 1.12c-7.75 6.39-18.22 7.66-26 14.05-8.21 4.68-4.83-3.56-2.53-8 11-26.46 23.2-52.83 41.8-74.91 16.34-21.91 32.64-44 53.79-61.64 4.16-3.74 32-24.53 35.35-27.75 3.57-3.27 19.22-14.13 23.47-16.38m344.48-10.92c-1.67-.06-10.72-5.75-14.29-8.68-10.28-8.43-19.67-7.63-31-11.61-12.92-3.47-52.52-12.12-65.73-14.2" transform="translate(-11.79 -7.52)"/><path class="cls-1" d="M34.82 617.78a10.92 10.92 0 011.57.11 13 13 0 0110.08 7.58c4.49 9.11 8.14 18.73 14.68 26.68 5.38 6.54 11.9 11.16 20.82 11.16h.47c17.71 0 30.12 8.11 37.9 24.13 3.23 6.65 6.65 13.23 13 18 4.91 3.66 10.2 4.45 15.56 4.45 1.72 0 3.45-.08 5.17-.18q1.62-.09 3.18-.09a40.36 40.36 0 0121.33 5.66c7 4.18 11.59 9.78 14.95 17.12 6.37 13.9 16.16 23.73 32.67 24h2.18c4 0 8-.19 12.06-.19h.22c15.34 0 27.16 6 35.31 19.53 5.17 8.6 10.24 17.59 19.31 23.11 5.12 3.12 10.24 5.36 16 5.36a23.48 23.48 0 006.78-1 51.68 51.68 0 0114.78-2.41 32.78 32.78 0 0116.39 4.2 22.69 22.69 0 014.09 2.47c4.63 4.18 7.08 10 3.24 15.15-9.9 13.27-19.83 26.53-29.63 39.87-8.58 11.7-14.45 24.92-20.93 37.8-2 4.06-4.18 8.1-5.82 12.32a2.39 2.39 0 01-2.46 1.63c-2 0-4.71-1.41-6.78-1.94-4.12-1.05-8.49-1.36-12.28-3.48-10.28-5.77-21.39-9.69-32.12-14.43-8.87-3.92-16.42-9.9-24.78-14.6-3.91-2.2-7.65-4.73-11.64-6.91-7-3.81-13.57-8.4-20.33-12.65-17-10.72-30.56-25.75-46.49-37.78-7.81-5.9-13.31-13.51-19.55-20.66-4.38-5-9.78-9.13-14.37-14a272.22 272.22 0 01-24.86-30.32c-8.57-12.2-18.16-23.73-25-37.08-9.41-18.27-20.4-35.73-26.57-55.63A209.84 209.84 0 0126 634.54a20.44 20.44 0 012.63-13.06 6.5 6.5 0 016.18-3.7m0-14a20.43 20.43 0 00-18.52 11.11c-3.86 7.23-5.24 14.56-4.12 21.79A222.48 222.48 0 0019.54 669c5.06 16.31 12.9 30.76 20.48 44.74 2.34 4.32 4.76 8.78 7 13.16 5.52 10.72 12.42 20.09 19.09 29.14 2.42 3.29 4.7 6.39 6.94 9.57a287.38 287.38 0 0026.14 31.89c2.4 2.53 4.84 4.76 7.19 6.91a88.42 88.42 0 016.8 6.65c1.34 1.54 2.66 3.11 4 4.78 5.08 6.07 10.33 12.35 17.61 17.85 6.07 4.58 11.8 9.67 17.87 15.05 9.12 8.09 18.56 16.46 29.61 23.41 2 1.24 3.9 2.49 5.95 3.83 4.81 3.12 9.79 6.35 15.13 9.27 1.83 1 3.68 2.13 5.65 3.34s3.78 2.32 5.83 3.47c2.83 1.59 5.65 3.41 8.64 5.34a125.38 125.38 0 0017.34 9.87c3.46 1.52 6.93 3 10.3 4.35a192.66 192.66 0 0120.63 9.48 41.08 41.08 0 0012.75 4.21c1.05.21 2 .4 2.86.61l1.1.4a25.94 25.94 0 009.2 2 16.31 16.31 0 0015.5-10.55c1.13-2.9 2.66-5.91 4.27-9.1q.52-1 1-2c1.21-2.41 2.41-4.84 3.56-7.18 5.07-10.32 9.86-20.06 16.15-28.62 8.19-11.16 16.63-22.47 24.79-33.4l4.77-6.38c7.83-10.5 5.78-24.13-5.09-33.93a27.21 27.21 0 00-5.88-3.89c-.24-.13-.49-.25-.73-.39a46.93 46.93 0 00-23.24-6 65.14 65.14 0 00-18.8 3 9.42 9.42 0 01-2.76.44c-2.24 0-4.92-1-8.68-3.32-5.63-3.43-9.4-9.7-13.75-17l-.85-1.42c-10.49-17.42-26.4-26.28-47.28-26.31h-.24c-2.18 0-4.3.05-6.36.09s-3.86.1-5.7.1h-1.9c-11.48-.23-16.5-7.77-20.22-15.89-4.71-10.28-11.42-17.91-20.53-23.32a54.24 54.24 0 00-28.48-7.63c-1.28 0-2.62 0-4 .12-1.68.09-3.08.15-4.39.15-4.11 0-5.8-.64-7.2-1.68-3.71-2.76-6.09-7.26-8.81-12.87-10.17-20.94-27.63-32-50.49-32H82c-2.61 0-5.63-.73-10-6-3.93-4.78-6.8-10.94-9.84-17.46-1-2.12-2-4.31-3.09-6.51a26.85 26.85 0 00-20.29-15.2h-.47a25.56 25.56 0 00-3.45-.24zm817.46 119.88a70.34 70.34 0 0117 2.09c4.06 1 36.79 12.28 38.34 51-1.16 26.72-23.7 48.64-43.75 51.89a63.54 63.54 0 01-10.17.82c-11.85 0-22.9-3.36-33.73-8.72-1.48-.73-3.05-1.48-3.27-3.2-.31-2.47 2.05-2.77 3.57-3.68 5.93-3.56 12-7 17.31-11.42 2.63-2.16 3.33-3.83.52-7.12-4.57-5.36-10.12-9.4-15.44-13.8-.82-.67-1.82-1.14-2.6-1.86-3.43-3.18-3-5.12 1.58-6.32a136 136 0 0020.88-7.77c3-1.31 5.19-2.94 5.72-6.1.58-3.46-1.89-5.54-4.45-7-7.88-4.4-15.37-9.4-22.87-14.39-1.71-1.15-4.38-1.8-4.18-4.36.24-3.16 3.44-2.79 5.53-3.67a76.31 76.31 0 0130-6.43m0-14a90.4 90.4 0 00-34.92 7.3h-.09a21 21 0 00-6.89 2.74 16.85 16.85 0 00-7.61 13 16.66 16.66 0 004.92 13.26 21.77 21.77 0 005.36 3.8l.27.14c3.85 2.57 7.76 5.17 11.78 7.73-2.37.85-4.67 1.58-7 2.19-4.27 1.11-11.76 4.22-13.85 12.54s3 14.59 6.29 17.6a23.28 23.28 0 003.32 2.52l.13.08c1 .85 2.07 1.68 3.11 2.52s2.08 1.68 3.08 2.51c-1.68 1-3.43 2.08-5.2 3.15l-1.57.93c-11.23 5.08-10.93 14.77-10.57 17.63a17 17 0 006.08 11 23.69 23.69 0 004.81 3h.06c13.86 6.85 26.92 10.17 39.94 10.17a77.59 77.59 0 0012.41-1c13.18-2.14 26.72-10 37.13-21.61 11.17-12.43 17.69-27.87 18.37-43.49v-1.17c-.8-20-8.75-37.14-23-49.62-10-8.79-21.05-13.2-26-14.42a85 85 0 00-20.35-2.5zm-413.55 313.92a7.26 7.26 0 012.23.4c5.08 1.66 10.33 2.83 15.36 4.63 13.81 5 27.94 8.81 42.06 12.75 7.6 2.11 14.63 6.11 22.21 8.68 8.28 2.81 16.5 6 24.64 9.35 8.43 3.43 15.28 8.75 21.64 14.75 11.43 10.8 18.84 21.67 27.85 34.73 1.3 1.89 4.28 3.2 2.92 6s-.35 2.68-3 2.78h-3.31a23.13 23.13 0 01-11.46-2.8c-7.67-4.3-127.58-48.56-134.77-52.11-7.42-3.65-14.95-7.12-22.58-10.31-3.61-1.51-3.6-3.14-1.62-6 4.71-6.76 9.26-13.64 13.86-20.48a4.64 4.64 0 014-2.4m0-14a18.7 18.7 0 00-15.62 8.59l-2.94 4.39c-3.52 5.25-7.15 10.68-10.79 15.91s-4.69 10.42-3.2 15.53c1 3.53 3.75 8.36 10.91 11.35 7 2.93 14.32 6.28 21.79 10 3.39 1.67 18.84 7.55 55.93 21.58 29.06 11 72.93 27.57 78.3 30.25a37 37 0 0018.19 4.52h3.95a17.09 17.09 0 007.41-1.67 15 15 0 007.47-8.71 2.09 2.09 0 01.11-.28 16.8 16.8 0 000-14.86 20.61 20.61 0 00-4.4-5.76l-.12-.17c-9.1-13.2-17-24.59-29.24-36.2-9-8.46-17-13.87-26-17.53-7.41-3-16.23-6.53-25.42-9.64-2.78-1-5.65-2.2-8.68-3.52a107.81 107.81 0 00-14.27-5.4l-2.89-.81c-13.27-3.69-25.81-7.19-38.21-11.63-3.3-1.18-6.5-2.08-9.59-2.94-2.17-.61-4.21-1.18-6.15-1.82a21.23 21.23 0 00-6.57-1.09z" transform="translate(-11.79 -7.52)"/><path class="cls-1" d="M832.47 620.23h.32c6.15.53 12 3.31 18.05 4.1 11.95 1.55 23.49 3.51 34.38 5.67 12.49 2.47 24.5 3.12 34.5 5.68 15.83 4.07 27.62 8.49 33.39 10.35 2.24.72 4.47 3.32 4.16 5.65-1.76 13.41-6 24.59-8.94 34.55-4 13.76-7.87 24.83-12.86 33.12C926.1 734.9 916.28 742.06 911 745a3.66 3.66 0 01-1.8.48 5.36 5.36 0 01-4.06-2.33c-7.25-9.56-20.52-18-37.15-22.28a74.51 74.51 0 00-18.63-2.39 80.3 80.3 0 00-24.51 4 4.57 4.57 0 01-1.38.21c-2.36 0-5-1.6-5.69-3.75-3.4-10.47-3.77-21.55-3.68-32 .1-11.4.29-22.67 2.5-32.28a183.86 183.86 0 0110.12-30.87c.79-1.83 3.67-3.46 5.75-3.46m0-14c-7.81 0-15.64 5-18.61 11.93A197.25 197.25 0 00803 651.42c-2.46 10.71-2.75 22.33-2.86 35.3-.09 11.69.37 24.2 4.37 36.5 2.52 7.78 10.51 13.42 19 13.42a18.31 18.31 0 005.63-.87 66.89 66.89 0 0120.26-3.31 60.1 60.1 0 0115.15 1.95c12.78 3.28 23.8 9.7 29.47 17.18a19.12 19.12 0 0015.22 7.87 17.74 17.74 0 008.59-2.23c6.29-3.49 18.5-12.1 29.67-30.63 6.19-10.28 10.53-23.57 14.3-36.41.63-2.14 1.34-4.38 2.09-6.75 2.71-8.6 5.78-18.35 7.3-29.91 1.16-8.8-4.87-17.94-13.73-20.8-1.17-.38-2.71-.9-4.49-1.51-6.72-2.3-16.88-5.78-29.73-9.08a174.66 174.66 0 00-19.82-3.45c-5.06-.68-10.29-1.39-15.44-2.41-12-2.38-23.89-4.33-35.3-5.82a47.17 47.17 0 01-6.32-1.54A62.92 62.92 0 00834 606.3c-.5 0-1-.07-1.53-.07z" transform="translate(-11.79 -7.52)"/><path class="cls-3" d="M834.08 713.09c-1.63-5.15-5.49-19.45-4.84-23.88-.29-14.62 4.85-27.07 8.28-39.88.82-3.08 3.06-2.93 4.88-1.18 7 6.74 16.54 8.45 24.77 12.72 12 6.21 24.57 11.2 36.62 17.4 8 4.13 15.72 8.69 23.46 13.25 3 1.75 3.32 3.56 2.34 6.56-3.37 10.39-18.41 27.71-26.16 35.13" transform="translate(-11.79 -7.52)"/><path class="cls-1" d="M807.49 806.1c1 0 1.91 0 2.89.06a.39.39 0 01.17.73c-3.21 1.86-5.35 3-7.26 4.35-4.23 3.08-4.44 6.88-.79 10.7 11.26 11.77 25.51 17.3 41.28 19.24a69.13 69.13 0 008.34.51 72.85 72.85 0 0025.58-4.79c4.62-1.72 8.47-4.55 12.66-6.87a5.75 5.75 0 012.72-.88c1.25 0 2.25.73 3.34 2.12 5.59 7.14 4.82 16.66-2.23 22.18a32.9 32.9 0 01-15.19 7 153.59 153.59 0 01-22.28 1.79 99.68 99.68 0 01-24.61-2.93A132.74 132.74 0 01797 844.56c-8.89-5.21-12.62-8.54-16.5-16.57-2.49-5.15-1.62-10.77 2.75-14.19 7-5.45 14.77-7.7 24.26-7.7m0-14c-13 0-23.71 3.49-32.89 10.67-9.49 7.43-12.19 20-6.72 31.32s11.73 16.52 22 22.55a147.38 147.38 0 0038.78 16.21 112.68 112.68 0 0028 3.36 165.45 165.45 0 0024.33-2 46.2 46.2 0 0021.76-9.78A28.92 28.92 0 00914 844.29a30.38 30.38 0 00-6.55-21.66c-4.85-6.18-10.48-7.48-14.35-7.48a19.26 19.26 0 00-9.51 2.63c-1.55.86-3 1.72-4.33 2.55a40.67 40.67 0 01-6.42 3.45 58.56 58.56 0 01-20.7 3.91 54.63 54.63 0 01-6.63-.41c-10.57-1.3-19.25-4.38-26.31-9.36a14.38 14.38 0 00-8.2-25.74 69.56 69.56 0 00-3.51-.08zm207.14-285.37c2.1 0 4.2.09 6.29.24 8.35.61 13.74 11.56 9.85 19.81-4.51 9.58-12.88 14.66-22.87 15.08s-20.21 1.44-30.32 2c-7.7.43-14.79 4-22 6.78-2.11.81-5.11 2.13-7.77 3.33a2.73 2.73 0 01-3.52-3.79c2.64-4.64 6.63-8.42 10-12.51 11.1-13.58 25.92-22 42.1-28a52.25 52.25 0 0118.22-2.93m0-14a65.47 65.47 0 00-23.08 3.8c-20.93 7.76-36.66 18.32-48.08 32.3-.84 1-1.8 2.11-2.81 3.25a66.06 66.06 0 00-8.49 11.2 16.51 16.51 0 00.08 16.6 16.83 16.83 0 0014.48 8.35 16.52 16.52 0 006.87-1.48c3.92-1.76 6-2.62 7.09-3 1.53-.59 3-1.2 4.46-1.79 4.82-2 9.38-3.85 13.23-4.07 4.44-.25 8.88-.59 13.18-.91 5.84-.44 11.35-.86 16.93-1.09 15.6-.66 28.34-9.08 35-23.11A28.7 28.7 0 001042 506a25.68 25.68 0 00-20-13c-2.53-.19-5-.28-7.31-.28zm51.92 115.6c6 0 10.9 2.8 15.94 4.48 11.62 3.88 19 12.43 23.6 23.46a26.9 26.9 0 01.88 17.28c-1.88 7.51-9 9.66-15 12a12.18 12.18 0 01-4.44.86c-4.22 0-8.09-2.32-11.36-5.75a9.72 9.72 0 01-2.6-5.69c-.78-5.81-2.23-11.59-2.35-17.41a52.31 52.31 0 00-7.6-26.67 1.65 1.65 0 011.27-2.5c.55 0 1.08-.07 1.61-.07m0-14c-.93 0-1.86 0-2.78.11a15.66 15.66 0 00-12.11 23.65 38 38 0 015.61 19.77 89.78 89.78 0 001.62 13.67c.33 1.87.63 3.63.86 5.32a23.67 23.67 0 006.34 13.49c8 8.33 16.07 10.08 21.49 10.08a26.06 26.06 0 009.53-1.82l1.3-.5c6.51-2.5 18.63-7.14 22.14-21.14 2.34-9.32 1.82-18.12-1.55-26.13-6.7-15.9-17.5-26.43-32.08-31.3-1-.32-2.1-.77-3.3-1.24-4.22-1.67-10-4-17.07-4z" transform="translate(-11.79 -7.52)"/><path class="cls-3" d="M461.51 980.31c-4.23 5.26-25.94 32.82-29.8 38.27M413.78 963c8.83 3.07 76.35 22.65 79.15 24" transform="translate(-11.79 -7.52)"/><path class="cls-1" d="M1140.19 21.52c3.21 0 6.41.24 9.58.33 7.41.21 14.87 1.44 22.27 2.41 22.1 2.89 40.75 23.88 39 42.92-.72 7.63-3.75 14.36-7.31 20.93-5.49 10.11-14.11 17.22-23 24.25a396.94 396.94 0 01-46.68 32.3c-8.53 5-17.52 9.15-26.19 13.89-11.72 6.42-24.58 10.16-36.58 16.09-9.36 4.64-19.68 8-29.59 11.82-7.19 2.8-14.35 5.7-21.42 8.78-24.43 10.63-49.07 20.85-73.07 32.37-6.85 3.29-13.64 7.08-20.52 10.52-18.61 9.32-37 19-55 29.51-16.37 9.51-33.47 17.76-50.33 26.4-18.31 9.39-37.38 17-56.23 25.24-14.18 6.16-27.72 13.91-42.1 19.66-14.62 5.85-28.42 13.37-42.71 19.88-13.35 6.1-26 13.82-39.42 19.68-10.76 4.68-20.94 10.24-31.32 15.59-22 11.34-44.76 21.32-66.8 32.72-4.24 2.2-9 3.35-13.37 5.39-23.92 11.23-47.52 23.12-71.07 35.12-9.76 5-19.49 9.71-28.51 16-4.11 2.87-9.07 4.51-13.51 6.94-10.54 5.78-21.5 11-31.33 17.77-8.51 5.9-17.91 10.7-25.24 18.34-4.32 4.5-5.37 9.86-.86 13.8 17.29 15.13 34.45 30.28 57.8 36.19a334.82 334.82 0 0065.48 9.92q3.84.19 7.73.19a174.74 174.74 0 0025.05-1.86c7-1 14.1-2.38 21.27-2.38 1.41 0 2.82 0 4.24.17.84.07 1.69.1 2.54.1a30.86 30.86 0 0011.65-2.25c18-7.41 36.53-13.69 53.33-23.9 18-10.94 36.45-21.18 54.34-32.32 18.8-11.71 38.22-22.41 56.4-35.12a397.39 397.39 0 0153.66-31.71c18-8.76 35.33-18.7 52.77-28.43a388.75 388.75 0 0040.33-26 259.57 259.57 0 0134-21 204.18 204.18 0 0028.69-17.41c3.59-2.7 8.1-4.13 12-6.48 12.33-7.47 24.43-15.35 36.79-22.7 19.71-11.73 39-24.11 59.54-34.56 11.62-5.93 22.34-13.59 33.81-19.85 13.59-7.41 25.88-17 40.13-23.32 3.82-1.69 6.77-5.22 10.46-7.28 20.72-11.56 40.32-25 61.45-35.92 8-4.13 16.27-7.86 24-12.7a31.16 31.16 0 0116.91-4.9 44.6 44.6 0 0116.85 3.68 13.73 13.73 0 018.62 12.62c0 4.65.51 9.44-.84 14.23-3.46 12.29-8 23.47-19 31.38-12.17 8.73-24.19 17.52-37.57 24.46-9.46 4.91-18 11.44-27.79 16-14.73 6.86-29.52 13.66-43.92 21.17-11.66 6.09-24.36 9.58-36 15.57-16.1 8.27-32.27 16.37-48.25 24.87-18.15 9.66-35.91 19.95-53.53 30.46-11.22 6.7-21.47 15-32.05 22.68-7.32 5.31-15 10.17-22.12 15.8-7.3 5.75-14.7 11.4-22 17.22q-17.19 13.78-34.88 27c-3.7 2.77-6.51 6.33-9.94 9.3-12.94 11.18-25.28 23-38.66 33.7-6.73 5.38-11.47 12.7-17.42 18.85-14.93 15.43-26 33.8-38.91 50.78-9.2 12.1-16.79 25.19-25.74 37.38-12.46 16.95-24.54 34.31-39.53 49.18-9.66 9.58-19.71 19-30.69 27s-23.69 13.41-36 19.33a162.9 162.9 0 01-40.92 13.38c-19.21 3.54-38.46 7.66-58.26 7.66-1.46 0-2.92 0-4.39-.07-16.86-.53-33.56-2.53-50.34-3.77-1.83-.13-35.09-7.31-41.09-8.61-10.65-2.33-21.4-4.44-31.83-7.55a121.41 121.41 0 01-22.86-9.38c-12.71-6.97-26.19-12.59-37.1-22.33-4.56-4.06-9.29-7.8-13-12.87-4.21-5.77-10.29-9.89-15.14-15.28-9.74-10.86-17.31-23-24.75-35.38a354.41 354.41 0 01-31.79-69.85c-2.1-6.25-2.81-13-3.89-19.56-1.6-9.72-3-19.49-4.41-29.24a90.64 90.64 0 01-.9-12c-.14-8.54.1-17.05-1.15-25.61-1.75-12 .2-24 2.19-35.81 4.83-28.67 16.14-55.17 29.37-80.82 7.72-15 17.77-28.41 28.3-41.59a312.48 312.48 0 0127.67-30A208.5 208.5 0 01382.88 249a16.81 16.81 0 012.12-1.1c1.91-.7 16.3-10.87 34.78-14.94 18.12-4 30.52-5.77 45.62-9.12A67 67 0 01480 222a44 44 0 0110.06 1.12 11.78 11.78 0 002.71.29c2.59 0 5.25-.63 8-.63h1.18c12 .91 22.3 7.43 34 9 1.14.15 26.49 5.59 32.17 6.72a69 69 0 0013.59 1.26c9.56 0 19.05-1.59 28.56-2.89a51.49 51.49 0 0026.21-11.05c7.65-6.21 14.31-13.53 22.55-19 9.57-6.41 19.39-12.05 30.66-15.19 8.15-2.27 16.06-5.36 24.63-5.36.89 0 1.8 0 2.71.11 3.74.3 7.45.51 11.18 1a77.74 77.74 0 0010.75.71 152.81 152.81 0 0024.29-2.39c8.52-1.38 15.22-6.29 21.11-12.34 4.11-4.22 8-8.64 12.14-12.85 13.62-13.93 29.37-23.41 49.34-25.5a210.67 210.67 0 0122.13-1.13c5.94 0 11.89.23 17.88.64.75.05 1.5.08 2.24.08 7.8 0 15.26-2.73 22.65-5.36 7.11-2.52 11.91-7.72 16.61-13.12 7.18-8.26 13.76-17 21.83-24.53C960.67 80.88 974.36 75 989.23 70.9a64.61 64.61 0 0117.43-2.39 74.54 74.54 0 0119.61 2.76 91.32 91.32 0 0023.91 3h.86c3.62 0 7.17.77 10.81.77a18.81 18.81 0 005.67-.8 45.05 45.05 0 0018.87-11.42c8.57-8.48 15.93-18 24.19-26.76 5.75-6.07 11.91-11.4 20.36-13.53a37.72 37.72 0 019.25-1m0-14a50.94 50.94 0 00-12.65 1.41C1115.31 12 1107 19.5 1100.41 26.41c-3.76 4-7.3 8.07-10.73 12-4.44 5.12-8.63 10-13.14 14.42a30.87 30.87 0 01-13.16 8 4.79 4.79 0 01-1.53.18c-1.07 0-2.46-.15-3.93-.31a64.38 64.38 0 00-6.88-.46h-.86a77.54 77.54 0 01-20.24-2.49 87.66 87.66 0 00-23.28-3.25 79.43 79.43 0 00-21.18 2.9c-25.71 7.11-38.5 17.1-45.89 24a201.93 201.93 0 00-17 18.64c-2 2.41-3.91 4.68-5.87 6.94-3.91 4.49-7 7.78-10.72 9.1l-.55.2c-6.29 2.24-12.23 4.36-17.42 4.36-.43 0-.86 0-1.27-.05-6.59-.45-12.75-.67-18.85-.67a223.43 223.43 0 00-23.6 1.21c-21.66 2.26-40.6 12-57.88 29.63-2.23 2.28-4.39 4.6-6.47 6.84s-3.8 4.09-5.69 6c-4.9 5-9 7.59-13.32 8.29a140.58 140.58 0 01-22.05 2.21 63.47 63.47 0 01-8.83-.58c-3.33-.46-6.51-.7-9.57-.93l-2.41-.19q-1.92-.15-3.84-.15c-8.81 0-16.6 2.36-23.48 4.43-1.7.52-3.31 1-4.9 1.44-13.95 3.89-25.37 10.8-34.69 17.05a131 131 0 00-15.71 12.88c-2.71 2.47-5.26 4.8-7.88 6.92a37.72 37.72 0 01-19.26 8.05l-4.55.63c-7.74 1.1-15 2.13-22.13 2.13a54.91 54.91 0 01-10.86-1c-2.58-.51-9.54-2-16.28-3.41-15.12-3.2-15.85-3.34-16.8-3.46-4-.54-8.41-2.07-13-3.7-6.34-2.22-13.52-4.74-21.71-5.36-.73-.06-1.49-.08-2.24-.08a48.54 48.54 0 00-5.72.41c-.82.1-1.65.2-2.14.21A58.71 58.71 0 00480 208a81.14 81.14 0 00-17.63 2.13c-7.06 1.57-13.58 2.79-20.48 4.09-7.63 1.43-15.53 2.92-25.12 5-17 3.74-30.51 11.71-36.29 15.12l-1.27.74a23.84 23.84 0 00-2.84 1.48l-.25.15a223.06 223.06 0 00-46.16 33.73A323.47 323.47 0 00301 301.91c-10.48 13.11-21.34 27.51-29.8 43.9-11.36 22-25.12 51.58-30.74 84.91-1.93 11.46-4.34 25.74-2.23 40.17a135.8 135.8 0 01.94 18.48c0 1.78 0 3.55.06 5.33a103.49 103.49 0 001.05 13.81q.51 3.42 1 6.85c1.08 7.4 2.2 15 3.44 22.61.22 1.34.43 2.69.63 4a104.2 104.2 0 003.81 17.71 365.17 365.17 0 0033 72.59c7.49 12.48 15.69 25.66 26.34 37.53a98.89 98.89 0 007.49 7.3 52.06 52.06 0 016.76 6.88c4 5.46 8.62 9.5 12.71 13.07.76.67 1.52 1.33 2.28 2 9.77 8.7 20.67 14.26 31.21 19.63 2.95 1.51 5.75 2.93 8.51 4.42A135 135 0 00403 733.63c9 2.69 18.15 4.65 27 6.55l5.84 1.26c40.07 8.68 42 8.81 43.08 8.89 5.58.42 11.32.93 16.88 1.43 11.06 1 22.5 2 34 2.37 1.58 0 3.21.08 4.83.08 18.74 0 36.65-3.36 54-6.62l6.83-1.27a176.44 176.44 0 0044.45-14.53c2-1 4-1.92 6-2.87 10.75-5.08 21.87-10.33 32.11-17.74 12.29-8.91 23.24-19.33 32.34-28.35 13.89-13.79 25.28-29.38 36.29-44.46q2.33-3.2 4.66-6.37c4.36-5.93 8.38-12 12.26-17.91 4.47-6.77 8.69-13.16 13.34-19.29 4.29-5.64 8.38-11.43 12.34-17 8.28-11.72 16.1-22.78 25.49-32.48 2.6-2.7 4.88-5.43 7.08-8.07 3-3.66 5.93-7.12 9-9.58 8.82-7 17.19-14.56 25.3-21.84 4.5-4 9.16-8.22 13.77-12.21 1.87-1.61 3.48-3.25 4.91-4.7a41.85 41.85 0 014.27-4c12.66-9.47 24.19-18.38 35.25-27.25 4.35-3.49 8.87-7 13.24-10.41q4.32-3.36 8.62-6.73c4.1-3.24 8.43-6.23 13-9.39 2.83-2 5.76-4 8.66-6.08s5.89-4.34 8.74-6.47a263.6 263.6 0 0122.27-15.52c21-12.52 37.32-21.81 52.93-30.12 11.19-6 22.73-11.84 33.88-17.53q7.1-3.62 14.18-7.25a178.25 178.25 0 0116.41-7 195.08 195.08 0 0019.7-8.57c12.82-6.69 26.32-13 39.38-19l4-1.85a159.19 159.19 0 0017-9.6c3.9-2.42 7.58-4.71 11.3-6.63 13.52-7 25.58-15.68 37.24-24.05l2-1.46c14.79-10.62 20.62-25.66 24.36-39 1.67-5.91 1.53-11.35 1.42-15.72v-2.42a27.73 27.73 0 00-17.32-25.46 58.4 58.4 0 00-22.14-4.72 45.08 45.08 0 00-24.37 7.05c-5 3.12-10.32 5.79-16 8.62-2.27 1.12-4.61 2.29-6.94 3.49-12.56 6.5-24.58 13.84-36.21 20.94-8.38 5.11-17 10.4-25.63 15.19a47.32 47.32 0 00-6.66 4.71 25.22 25.22 0 01-2.67 2c-9.49 4.21-17.91 9.54-26.06 14.7-5.17 3.28-10.06 6.38-15.08 9.12-5.49 3-10.74 6.24-15.82 9.38-6 3.75-11.77 7.28-17.66 10.29-15.82 8.07-31 17.28-45.71 26.19-4.79 2.91-9.75 5.91-14.62 8.81-7 4.16-14 8.52-20.71 12.74-5.3 3.32-10.78 6.75-16.18 10-1 .61-2.37 1.25-3.81 1.94a52.09 52.09 0 00-9.33 5.32c-9 6.75-19 12.19-26.71 16.17a274.35 274.35 0 00-35.87 22.14 375.93 375.93 0 01-38.88 25.08l-7.71 4.32c-14.45 8.09-29.39 16.46-44.37 23.75a413.26 413.26 0 00-55.55 32.82c-11.7 8.18-24.35 15.75-36.59 23.07-6.29 3.77-12.81 7.67-19.19 11.65-9.89 6.15-20.21 12.18-30.18 18-7.89 4.61-16 9.37-24 14.22-12 7.32-25.17 12.51-39.09 18-4 1.59-8.18 3.23-12.3 4.92a16.69 16.69 0 01-6.32 1.2h-1.39c-1.75-.15-3.56-.22-5.39-.22a125.25 125.25 0 00-19.45 1.94l-3.85.59a161.29 161.29 0 01-23 1.71c-2.36 0-4.73-.06-7-.17a323 323 0 01-62.75-9.51c-18.26-4.62-32.72-16.35-47.57-29.28a108.33 108.33 0 0112.51-8.79c2.58-1.64 5.25-3.34 7.9-5.18 6.49-4.49 13.68-8.29 21.3-12.31 2.88-1.51 5.85-3.08 8.79-4.69 1.27-.7 2.8-1.4 4.42-2.14a63.3 63.3 0 0010.37-5.6c7.3-5.09 15.35-9.17 23.87-13.49l3-1.51c26.16-13.33 48.18-24.37 70.67-34.93 1.38-.65 3.1-1.26 4.92-1.92a72.61 72.61 0 009-3.71c11-5.67 22.4-11.13 33.47-16.41s22.25-10.61 33.29-16.29l6.58-3.42c8.16-4.26 15.86-8.28 23.91-11.78 7.66-3.34 14.95-7.18 22-10.89 6.07-3.2 11.8-6.21 17.67-8.9 5.53-2.52 11-5.2 16.32-7.79 8.81-4.3 17.13-8.37 25.77-11.82s16.69-7.44 24.58-11.33c6.15-3 12-5.91 17.9-8.49 4.35-1.89 8.8-3.79 13.11-5.63 14.48-6.18 29.44-12.56 43.93-20 4-2.05 8.08-4.11 12-6.11 12.85-6.49 26.13-13.2 38.94-20.64 16.22-9.43 33.95-18.95 54.23-29.1 3-1.53 6.09-3.12 9-4.66 3.9-2.05 7.59-4 11.29-5.76 18-8.62 36.71-16.69 54.85-24.49 5.82-2.5 11.83-5.09 17.74-7.66 6.22-2.71 13.06-5.51 20.92-8.57 2.78-1.09 5.57-2.12 8.52-3.21a222.94 222.94 0 0022.21-9.12c4.85-2.39 10-4.44 15.4-6.61a194.76 194.76 0 0021.68-9.74c3.42-1.87 6.87-3.64 10.53-5.51 5.24-2.68 10.66-5.46 16-8.56a410.22 410.22 0 0048.33-33.43c8.22-6.53 19.46-15.46 26.56-28.54 3.87-7.15 8-15.85 9-26.29 1.23-13-3.9-26.94-14-38.21-9.79-10.86-23.28-18.11-37-19.91l-4.32-.59a177.17 177.17 0 00-19.37-1.93l-3.33-.14c-2.12-.1-4.32-.2-6.64-.2z" transform="translate(-11.79 -7.52)"/><path class="cls-3" d="M448.98 563.65l5.07-86.01 107.22 78.5-1.92-129.55 113.61 67.65-6.39-123.82 113.74 57.82 15.18-115.89 93.82 51.05 15.83-114.99 93.09 47.39 5.5-93.09 89.45 41.85 19.72-87.13 67.28 33.85"/><path class="cls-1" d="M1165.63 53.68c0 9.82-10 17.78-21.05 17.78s-20-8-20-17.78 9-17.78 20-17.78 21.05 7.96 21.05 17.78z" transform="translate(-11.79 -7.52)"/><ellipse class="cls-1" cx="976.89" cy="107.44" rx="23.75" ry="21.11"/><path class="cls-2" d="M421.07 323.71c25-22.35 60.94-38.28 60.94-38.28m-109.45 25.03c1.17-43.09 46.58-82.11 46.58-82.11m88.73 37.22c14.54-12.92 45.75-29.76 45.75-29.76" transform="translate(-11.79 -7.52)"/><ellipse class="cls-2" cx="549.06" cy="260.32" rx="5.65" ry="8.48" transform="rotate(-12.53 509.096 310.326)"/><ellipse class="cls-2" cx="467.22" cy="310.37" rx="4.89" ry="7.38" transform="rotate(-23.49 443.31 335)"/></svg>