<svg xmlns="http://www.w3.org/2000/svg" viewBox="0 0 1472.29 2001.19"><defs><style>.cls-1{fill:#010101}.cls-3,.cls-4{fill:none;stroke:#010101;stroke-linecap:round}.cls-4{stroke-miterlimit:10}.cls-3{stroke-width:14px;stroke-linejoin:round}.cls-4{stroke-width:9.64px}</style></defs><g id="Layer_2" data-name="Layer 2"><g id="Layer_1-2" data-name="Layer 1"><path class="cls-1" d="M1013.17 945.11h2.08q46.23.09 92.47.22a27.23 27.23 0 017.62.87c27.86 8.74 56.42 14.84 82.77 28.53 25.06 13 49.54 27.06 74.15 40.84a130.31 130.31 0 0119 13.11c17 14.07 36 25.54 52.89 39.84 6.75 5.72 12.4 12.18 18.09 18.73 8.39 9.71 16.74 19.44 24.9 29.34 14.81 17.93 25.55 38.46 36.21 58.89 5 9.45 7.49 20.15 11 30.3 5.4 15.49 10.35 31.11 13.43 47.27 1.8 9.57 1.38 19.24 3.28 28.91 6.17 31.24 8 63 7 94.82-1.12 35.89-5.2 71.49-17.48 105.71-5.72 15.87-10.41 32.13-15.58 48.23a26 26 0 01-2.12 5.75c-11.6 18.25-18.38 38.88-28.41 57.93-11.05 20.92-23.39 40.87-38.91 58.86-8 9.29-15 19.44-24.22 27.7-3.44 3.09-3.63 7.26-1.64 11.34 2.51 5.08 5 10.16 7.84 15 12.34 21.37 21.24 44.34 31.1 66.86 5 11.28 18.47 45 18.47 45s-45.17 18.25-62.55 24.32c-22.75 8-45 17.19-67.47 25.77-2.41.9-4.86 1.77-7.33 2.44a8.29 8.29 0 01-2.11.31c-2.34 0-4-1.33-5.06-4.1q-6.21-16.53-12.66-33c-8.16-21-17.92-41.42-24.7-63a6.38 6.38 0 00-6.49-4.82 13.48 13.48 0 00-5 1.12c-9.48 3.89-18.89 7.9-28.4 11.73-22.46 9-46 14.2-69.69 18.47-18.07 3.26-36.08 6.78-54.6 6.78h-.25c-11.73 0-23.49.77-35.25 1.42-5.88.32-11.79.49-17.69.49a246.46 246.46 0 01-49.43-4.7 48.57 48.57 0 00-6.1-.93c-.4 0-.8-.06-1.18-.06a9.79 9.79 0 00-9 5.45 17 17 0 00-1.8 4.24c-4.82 19.51-14.36 37.28-20.5 56.33-3.12 9.7-7.71 19-11.79 28.4a4.16 4.16 0 01-3.9 2.9 6.25 6.25 0 01-2.37-.52c-13.3-5.43-26.5-11-40-16.1-10.47-3.92-21.11-7.87-32-10.41-19.08-4.5-36.85-12.62-55.42-18.47-5.53-1.74-6.94-5.5-4.18-11 9.87-19.76 17.87-40.29 25.77-60.89 3.82-10.06 6.78-20.43 10.54-30.52 1.93-5.14.67-9-3-12.4a82.55 82.55 0 00-8.26-7 438.77 438.77 0 01-52.21-43c-8.55-8.09-17.9-15.29-26-23.93a410.68 410.68 0 01-45.98-59.48c-13-20.27-22.3-42.7-30.14-65.58-.51-13.81-10.79-24-13.75-37-1.31-5.88-5.81-8.16-11.44-8.45-.78 0-1.58-.07-2.38-.07a20.9 20.9 0 00-5.26.58c-7.67 2-15.47 2.17-23.26 2.17h-8.94c-7.14.11-14.28.19-21.42.19-7.78 0-15.55-.1-23.3-.38a207.19 207.19 0 01-32.07-3.31c-16.07-3.18-32.45-4.44-48.26-8.94s-32.16-6.33-48.32-9.09c-7.07-1.22-14.3-2.25-21-4.69-25-9.16-50.6-16.77-74.15-29.59a577.71 577.71 0 01-69.72-44.84 409.66 409.66 0 01-45.08-39.42c-16.64-16.74-32.77-33.84-46.87-52.89-8.78-11.86-17.19-24-25.64-36.05-6.66-9.45-10-21.21-14.82-32-1.06-2.35-1.83-4.79-2.92-7.13a3.33 3.33 0 00-2.91-2.09 2.69 2.69 0 00-.82.13c-8 2.37-16.58.86-24.32 3.18a27.2 27.2 0 01-7.79 1.19c-9.12 0-16.23-5.17-22.64-11.38-12-11.66-11.92-31.29-5.59-41.29 3.65-5.75 8.28-9.09 14.86-9.09.55 0 1.11 0 1.69.07 2.54.22 5.08.61 7.61 1a25.62 25.62 0 004.17.42c5.29 0 6.63-2.85 4.89-9.83-1.12-4.43-3.14-8.64-4.75-12.95-7.1-18.92-5.88-37.14 4.4-54.68.77-1.32 1.45-2.74 2.31-4 7.19-10.16 15.57-15.31 25.58-15.31a39.47 39.47 0 0114.78 3.23c12.31 5 21.85 12.63 24.36 27.25a125 125 0 01.28 39.74 68.79 68.79 0 01-2 9c-1.83 6.56-.28 11.89 4.54 16.84 7.13 7.36 13.81 15.13 20.62 22.81 3.63 4.11 3.79 6.52 1.13 11.09-2.86 4.85-5.82 9.64-8.68 14.49-1.06 1.86-1.6 4 .48 5.43a2.88 2.88 0 001.66.53c1.35 0 2.66-.91 4-1.53 5-2.41 6.78-7.55 10-11.5 2.15-2.69 3.74-4 5.54-4 1.6 0 3.37 1.07 5.83 3.18s4.44 4.28 6.65 6.4c13.72 13.14 27.64 26 43.06 37.17 2.38 1.74 2.83 4 1.35 6.72-2.77 4.91-5.56 9.83-8.23 14.78-1.51 2.76-2.6 5.78-1.32 8.8a4.75 4.75 0 003.25 2 .79.79 0 00.32-.06 16.38 16.38 0 005.95-4.56c3.08-4.08 5.68-8.52 8.38-12.89 1.24-2 2.7-2.91 4.39-2.91a7.48 7.48 0 013.45 1c6.33 3.34 13 6 19.12 9.86 10.44 6.46 21.46 12 32.26 17.87 2.25 1.25 4.5 2.47 6.65 3.88 6.07 4.12 6.78 6.59 3.53 12.76-1.92 3.63-4.21 7.07-6 10.76a4.44 4.44 0 004 6.22 5.77 5.77 0 003.25-1.14c4.79-3.34 7.07-8.71 10.28-13.27 1.69-2.41 3.37-3.76 5.67-3.76a8.8 8.8 0 013.33.77c24.19 10.19 49.7 16.07 75 22.69 4.15 1.09 5.5 3.47 4.5 8.19-1 4.5-2.22 9-3.15 13.46a20.44 20.44 0 00-.26 6 4.51 4.51 0 003.8 4.21 3.67 3.67 0 00.66 0 5.23 5.23 0 004.38-2.94c1.22-2.22 1.77-4.79 2.57-7.23s1.48-4.88 2.31-7.33c2.44-7 3.38-8.61 9-8.61 1.27 0 2.77.08 4.58.2a110.92 110.92 0 0112.28 1.09c8.64 1.61 17.35 1.83 26.09 1.89H455a30.7 30.7 0 018.33.8 32.92 32.92 0 009.06 1.25 43.8 43.8 0 0010.66-1.44 42.75 42.75 0 0110.22-.88h2.21c4.74 0 6.41 1.46 7 6.07 1.1 8.64 2 17.29 2.93 26 .16 1.51.19 3.09.45 4.56.57 3.25 2.92 5.7 5.27 5.7a3.31 3.31 0 00.83-.1 6.45 6.45 0 005.14-6.69c.1-7.2-.06-14.36-.13-21.56 0-2.57-.29-5.14-.16-7.71.26-5.24 2.06-7.52 7.07-8.51 7-1.39 14.17-2.38 21.24-3.7 12.05-2.31 24.13-4.69 36.15-7.13 4.85-1 8.48-3.63 10.38-8.29s4.72-9.35 5.49-14.3c3.82-24.39 10.54-47.84 18.6-71.17 13.56-39.17 33.26-74.86 57.1-108.44 11.25-15.9 22.39-32 35.09-46.75a369.49 369.49 0 0154.84-51.63c27.83-21.43 58.51-38 90.19-52.73 13-6 26.67-10.63 40.07-15.84 3.34-1.32 7-2 10.09-3.76 12.15-6.91 25.09-8.89 38.36-8.89 4.07 0 8.16.19 12.28.47.79.06 1.58.08 2.26.08h8.38c4.8 0 9.49.06 14.09.06 11.07 0 21.64-.34 32.11-2.65a11.89 11.89 0 012.54-.22m0-14a26 26 0 00-5.52.54c-8.76 1.93-18 2.33-29.13 2.33H964.4c-2.46 0-4.58 0-6.62.05h-3.05c-4.89-.34-9.22-.51-13.25-.51-18 0-32.42 3.41-45.28 10.72a24.55 24.55 0 01-3.56 1.29c-1.42.44-3 .94-4.71 1.6-3.87 1.5-7.86 3-11.73 4.43-9.59 3.58-19.5 7.27-29.14 11.76-39.11 18.24-67.73 35-92.83 54.33a384.81 384.81 0 00-56.92 53.59c-12 14-22.72 29.12-33 43.74l-2.86 4.06c-26.44 37.24-45.71 73.86-58.9 111.94-9.57 27.69-15.67 51.07-19.2 73.58a30.78 30.78 0 01-2.5 6.39c-.67 1.45-1.37 3-2 4.59h-.29c-11.37 2.31-23.48 4.7-36 7.1-3 .56-6.07 1.07-9.28 1.6-3.92.64-8 1.31-12 2.11a23 23 0 00-12.19 6.16c-3.48-2.7-8-4.14-13.52-4.14h-2.21a55.2 55.2 0 00-13.56 1.28h-.07a30.19 30.19 0 01-7.25 1 19 19 0 01-5.26-.73 42.94 42.94 0 00-12.13-1.32h-2.25c-7.77-.06-16-.24-23.66-1.67a86.42 86.42 0 00-10.95-1.11c-1-.06-1.93-.11-2.89-.18h-.07c-2.11-.14-3.85-.23-5.5-.23a24.93 24.93 0 00-9.09 1.54 20.66 20.66 0 00-11.13-6.92l-11.12-2.87c-21.76-5.59-42.31-10.87-62-19.18h-.06a22.71 22.71 0 00-8.7-1.84 18.9 18.9 0 00-3.61.34c-2.36-4.37-6.09-7.32-9.31-9.5l-.17-.11c-2.33-1.53-4.58-2.78-6.76-4l-.76-.42h-.09c-3.28-1.8-6.59-3.57-9.8-5.28-7.64-4.07-14.86-7.91-21.82-12.22a141.5 141.5 0 00-13.32-7c-2.32-1.12-4.52-2.18-6.62-3.29a21.58 21.58 0 00-8.84-2.6 19.23 19.23 0 00-7-9.22c-15.43-11.18-29.57-24.43-41.62-36-.73-.69-1.43-1.39-2.13-2.09-1.55-1.54-3.16-3.13-5-4.73l-.1-.09c-2.06-1.76-6.59-5.65-12.79-6.42a25.75 25.75 0 00-5.72-9.89l-4.21-4.77c-5.4-6.12-11-12.45-16.86-18.52-1.58-1.62-1.49-2-1.1-3.33v-.1a84.06 84.06 0 002.32-10.74 138.46 138.46 0 00-.36-44.09c-3-17.62-13.76-30-32.84-37.81a53.5 53.5 0 00-20.16-4.28c-14.6 0-27 7.15-37 21.23a39.14 39.14 0 00-2.41 4c-.18.34-.36.67-.55 1-12.32 21-14.14 43.45-5.43 66.68.3.81.61 1.6.92 2.38h-1.42c-7.66 0-18.51 2.7-26.68 15.6-4.9 7.73-7.16 18.21-6.21 28.77a47.7 47.7 0 0013.87 30.06c7.38 7.14 17.72 15.33 32.39 15.33a41.29 41.29 0 0011.79-1.78 41.76 41.76 0 018.7-1c1.81-.09 3.71-.19 5.68-.37 1.25 2.83 2.41 5.79 3.64 8.9 3.3 8.37 6.71 17 12.32 25l3.82 5.45c7.11 10.16 14.46 20.66 22 30.87 15.15 20.46 32.12 38.25 48.21 54.43a419.64 419.64 0 0046.61 40.76 597.49 597.49 0 0071.41 46c19.18 10.44 39.44 17.53 59 24.39 5.6 2 11.4 4 17 6.06 7.05 2.57 14 3.75 20.76 4.89.88.14 1.77.29 2.65.45 4.32.73 8.64 1.41 12.82 2.06 11.92 1.85 23.17 3.6 34.06 6.7s21.54 4.7 31.95 6.29c6 .92 11.74 1.79 17.42 2.91a220.64 220.64 0 0034.24 3.56c7.28.27 15.07.4 23.85.4 7.69 0 15.25-.1 21.63-.19h8.69c8.47 0 17.52-.2 26.79-2.62a7.35 7.35 0 011.73-.13h.78c1.76 6.28 4.59 11.73 7.11 16.61 3 5.71 5.52 10.65 5.69 15.4a14.14 14.14 0 00.75 4c9.68 28.25 19.72 50 31.59 68.59 15.22 23.73 30.73 43.91 47.44 61.7a229.37 229.37 0 0016.91 15.69c3.42 3 6.64 5.81 9.75 8.75a451.62 451.62 0 0053.87 44.33h.06a54.19 54.19 0 015.48 4.59c-1.65 4.55-3.15 9.08-4.6 13.47-1.75 5.32-3.41 10.34-5.29 15.28-8.26 21.54-15.88 40.93-25.2 59.61-4.16 8.26-3 14.78-1.32 18.79s5.41 9.16 13.82 11.8c6.82 2.15 13.5 4.61 20.57 7.22 11.45 4.21 23.28 8.57 35.84 11.53 10.21 2.39 20.41 6.2 30.28 9.89s19.79 7.8 29.43 11.78l10.15 4.17a20.13 20.13 0 007.66 1.56 18.16 18.16 0 0016.76-11.37c1-2.31 2.07-4.69 3.11-7a218.38 218.38 0 009.15-22.65c2.41-7.48 5.4-14.79 8.56-22.53 4.35-10.64 8.84-21.63 11.88-33.46.61.11 1.27.23 2 .39a258.55 258.55 0 0052.26 5c6 0 12.18-.17 18.46-.51l5.08-.29c10.15-.57 19.75-1.11 29.4-1.11h.25c18.5 0 36.23-3.22 53.37-6.33l3.71-.67c21.76-3.92 47.39-9.27 72.4-19.25 5.82-2.34 11.62-4.76 17.23-7.1l6.48-2.69c4.18 12.13 9.11 23.87 13.9 35.29 3 7 6 14.35 8.79 21.51 4.9 12.6 8.91 23 12.61 32.89 3.07 8.23 9.86 13.17 18.16 13.17a22.22 22.22 0 005.74-.79h.05c3.11-.85 6.06-1.91 8.54-2.83h.09c7.67-2.92 15.41-6 22.89-8.9 14.46-5.68 29.42-11.55 44.23-16.73 17.48-6.11 61.31-23.8 63.17-24.56a14 14 0 007.75-18.18c-.56-1.39-13.67-34.09-18.65-45.44-2.13-4.86-4.26-9.87-6.33-14.71-7.57-17.75-15.41-36.11-25.47-53.53-2.14-3.71-4.11-7.57-6.12-11.62a189.5 189.5 0 0015.65-17.83c2.38-3 4.64-5.77 7-8.49 14.45-16.75 27.38-36.28 40.68-61.46 4.26-8.09 7.92-16.35 11.46-24.33 5.14-11.62 10-22.59 16.38-32.63l.07-.11a29.69 29.69 0 003.21-7.68c.11-.37.21-.74.33-1.11v-.08c1.66-5.16 3.28-10.39 4.86-15.45 3.32-10.7 6.76-21.76 10.56-32.31 11.11-31 16.92-65.92 18.3-110 1.15-35.47-1.21-67.52-7.23-98a111.79 111.79 0 01-1.46-13.1 139.26 139.26 0 00-1.79-15.69c-3.42-17.93-9-35-14-49.29-.93-2.69-1.8-5.48-2.73-8.44-2.44-7.82-5-15.9-9.08-23.74-10.82-20.74-22-42.21-37.82-61.32-8.36-10.14-17-20.21-25.1-29.57-5.57-6.42-11.87-13.68-19.63-20.26-9.22-7.8-18.94-14.74-28.34-21.45-8.68-6.2-16.87-12.05-24.68-18.5a143.52 143.52 0 00-21-14.52l-13.82-7.76c-19.75-11.11-40.17-22.59-60.74-33.3-20.83-10.82-42.69-17.11-63.82-23.18-7-2-14.23-4.1-21.22-6.29a40 40 0 00-11.63-1.51h-.12c-23.18-.09-46.75-.14-69.55-.18h-25.11z"/><path class="cls-1" d="M636.37 1830.1a4.8 4.8 0 01.55 0c16.25 2.33 28.7 5.38 40.75 9.73 16.86 6.07 33.7 12.24 50.52 18.34 25.41 9.22 50.55 19.85 77.64 23.94 8.17 1.24 15.49 5.23 23.08 8.29 15.18 6.12 30.43 12.07 45.57 18.3 7.18 3 7.39 3.42 5.21 10-2.41 7.28-4.84 14.6-7.93 21.61-4.12 9.38-8.68 18.55-11.81 28.35-.85 2.67-2.08 4-3.73 4-1.2 0-2.63-.69-4.3-2-2-1.61-3.77-3.47-5.67-5.19-1.71-1.54-3.55-2.81-5.66-2.81a5.85 5.85 0 00-2.64.66 11.46 11.46 0 01-5.24 1.25 23.24 23.24 0 01-8.06-1.9c-28.29-10.58-56.93-20.2-84.84-31.84-14.15-5.89-29-10-43.58-14.94-2.42-.81-5.05-1.21-7.25-2.42-14.46-7.94-30.42-12.1-45.65-18.07-5.72-2.24-11.45-4.52-17-7.2-14.21-6.89-21.65-25.57-16.3-40.44a15.15 15.15 0 011.29-2.77c4.41-7.38 19.16-14.87 25-14.87m0-14c-10.83 0-30.05 10-37 21.68a30 30 0 00-2.44 5.23 46.58 46.58 0 001 33.16 46.05 46.05 0 0022.36 24.61c6 2.88 11.89 5.25 18 7.64 5.19 2 10.42 3.85 15.48 5.61 10.18 3.54 19.8 6.89 28.54 11.69a33.69 33.69 0 007.82 2.93c.66.18 1.28.35 1.69.49 4.6 1.55 9.25 3 13.76 4.47 10.12 3.23 19.69 6.28 28.91 10.12 19.24 8 39 15.17 58.09 22.07 9 3.24 18.2 6.59 27.24 10a36.24 36.24 0 0013 2.78 25.49 25.49 0 006.23-.76c1.23 1.16 2.6 2.46 4.18 3.74 4.23 3.41 8.64 5.14 13.1 5.14 3 0 13-1 17.07-13.72a188.8 188.8 0 018.22-20.13c1-2.22 2.06-4.52 3.07-6.83 3.43-7.81 6.07-15.8 8.4-22.86 1.39-4.2 3.49-10.54 0-17.19-3.1-6-8.72-8.31-13.23-10.16-9.43-3.88-19-7.7-28.32-11.4-5.69-2.27-11.57-4.61-17.34-6.93-1.72-.7-3.47-1.46-5.32-2.27-6.07-2.66-13-5.68-20.9-6.88-21-3.17-40.77-10.55-61.72-18.37-4.33-1.61-8.8-3.28-13.24-4.89l-19.19-7c-10.27-3.74-20.89-7.6-31.35-11.37-13.3-4.8-26.72-8-43.51-10.42l-.64-.08c-.62-.06-1.26-.09-1.9-.09z"/><path class="cls-1" d="M1036.72 1871.1c2.73 0 3.69 1.51 5.13 5.34 6.33 16.8 9.31 34.44 13.15 51.87.81 3.71-.76 6-4 7.14-4.8 1.76-9.65 3.38-14.53 4.9-21 6.57-54.75 13.11-75.73 19.58-4.4 1.36-13.57.34-18.07 1.29-3.3.7-32.12 12.89-49.27 17.16a25.62 25.62 0 01-5.89 1.07 7.24 7.24 0 01-1.62-.17c-17.66-4.06-18.83.3-11.21-17.72 7-16.49 14-33 20.54-49.62 2.1-5.31 5.37-8.54 10.62-10.06 3.43-1 6.91-1.85 10.37-2.77 20.27-5.37 40.43-11.18 60.83-16 18.89-4.47 38-8 57.06-11.7a14.12 14.12 0 012.63-.31m0-14a27.1 27.1 0 00-5.3.57l-10.29 2c-15.51 3-31.55 6.09-47.32 9.82-14.43 3.42-28.88 7.35-42.86 11.15-6 1.64-12.23 3.33-18.33 4.95l-3.08.81c-2.47.64-5 1.3-7.6 2-9.37 2.71-16 8.89-19.74 18.37-6 15.13-12.45 30.45-18.71 45.27l-1.71 4-.74 1.74c-4.06 9.58-7 16.5-2.82 24.12 4 7.31 11.19 8.52 17 9.5 2.15.36 4.59.77 7.57 1.46a21.21 21.21 0 004.75.52 34.16 34.16 0 008.58-1.31l.69-.18c12.3-3 29.31-9.58 40.56-13.89 3.31-1.27 7-2.69 8.46-3.18 1.1-.12 3.49-.14 5.12-.15 4.72 0 9.59-.08 14-1.43 9.88-3 23.32-6.25 36.33-9.35 13.94-3.33 28.35-6.76 39.46-10.25 5.52-1.73 10.48-3.4 15.16-5.11 10-3.65 15.12-13 12.86-23.3-.77-3.48-1.52-7.07-2.25-10.53-3-14.2-6.05-28.88-11.47-43.27-1.34-3.56-5.43-14.4-18.23-14.4zm154.67-74.32a16.57 16.57 0 013.56 2.32 12.54 12.54 0 012.33 4q15.62 38.37 31.12 76.77a31 31 0 011.46 4.36c1.21 4.92 0 7.1-5 9.57-8.58 4.21-12.29 6.07-17 6.07-3.57 0-7.71-1.06-15-3-13.39-3.53-27.11-5-40.74-7-5.55-.83-11-2.11-16.54-3.24-3.87-.78-4.93-3.58-4.11-6.89 5-19.84 10.13-39.62 15-59.46 1.22-4.93 3.91-8.22 8.58-10q16.51-6.3 33-12.58c.95-.36 2-.52 3.27-.86m0-14a14.25 14.25 0 00-3.48.44l-.86.21a27.54 27.54 0 00-3.9 1.12c-9.47 3.59-19.1 7.26-28.4 10.82l-4.65 1.77c-8.88 3.39-14.82 10.2-17.18 19.71-2.56 10.33-5.24 20.84-7.84 31-2.37 9.31-4.83 18.93-7.2 28.43a19.81 19.81 0 002.19 15.52 19.29 19.29 0 0012.7 8.48c1.44.29 2.87.6 4.3.9 4.17.88 8.48 1.8 13 2.47 3.08.46 6.18.9 9.19 1.32 10.5 1.47 20.42 2.86 30 5.4 7.57 2 13 3.44 18.55 3.44 7.88 0 13.45-2.73 22.68-7.26l.49-.23c13.8-6.76 14.39-17.59 12.46-25.48a45.07 45.07 0 00-2.08-6.28c-9.17-22.67-20-49.53-31.13-76.8a26.2 26.2 0 00-5.16-8.33 22.82 22.82 0 00-6-4.38l-.36-.2a14.05 14.05 0 00-7.35-2.08z"/><path class="cls-1" d="M937.19 1814.74a35.64 35.64 0 015.31.6 125.62 125.62 0 0013.65 1.69c14.72.78 29.45 1.51 44.18 1.87h.78c4.78 0 9.58-1.05 14.39-1.33h.61c5.16 0 6.74 4 8.58 9.25 3.23 9.15 6.26 15.15 9.09 24.43 1.59 5.21 0 7.63-5.42 8.51-23.26 3.76-45.67 11-68.47 16.59-12.39 3-24.74 6.28-37.13 9.33-4 1-8 1.63-9.47 1.94h-.36c-5.41 0-6.85-1.93-5.73-4.92 7.7-20.57 15.36-41.17 23.33-61.64 1.86-4.8 3.18-6.32 6.66-6.32m0-14c-13.78 0-18.09 11.07-19.71 15.24-7.07 18.18-14 36.71-20.7 54.63l-2.69 7.18a17.23 17.23 0 001.69 16.08c4.44 6.4 11.78 7.75 17.15 7.75h.57a13.63 13.63 0 002.55-.27l1.29-.24c2-.37 5.39-1 8.77-1.83 6.18-1.52 12.42-3.1 18.45-4.64s12.46-3.16 18.67-4.69c7.38-1.82 14.77-3.81 21.92-5.74 15.57-4.2 30.28-8.17 45.45-10.62 6.9-1.12 12-4.18 15-9.09s3.57-10.73 1.55-17.33c-1.84-6-3.75-10.8-5.6-15.41-1.21-3-2.45-6.11-3.68-9.59a36.89 36.89 0 00-5.12-10.41 20.48 20.48 0 00-16.66-8.18h-1.43c-2.51.14-4.81.43-7 .72a56.34 56.34 0 01-6.52.58h-.43c-15-.37-29.84-1.13-43.79-1.86a117 117 0 01-12.12-1.52 45.75 45.75 0 00-7.58-.79z"/><path d="M951.69 1205.21c43.74-24.93 83.14-41.62 117-45.42 49.71-5.57 88 15.24 115 41.08 29 27.78 42 67.77 42.67 111.68.6 39.51-9.19 80-33.19 116.49-21.25 32.31-52.07 58.23-93.74 76.9-33.57 15-72.48 34.38-119.93 34.37m-275.02-369.23c-6.15 6.62-11.74 13-15.93 19.53-4.93 7.67-7.33 15.86-9.78 23.15-2.9 8.63-5.47 16.78-5.33 24.54.17 8.87 1.86 17.61 5.35 24.81a56.71 56.71 0 0016 19.86c6.46 5 14.8 8.23 23.27 10.19 7.73 1.79 16.37 1.69 25.17.47a86.54 86.54 0 0023.93-7.46c7.09-3.26 14.83-6.82 22-12.32a146.89 146.89 0 0018.45-17.23c5.29-5.81 9.6-13.12 14.65-20.45" stroke-width="14" stroke-miterlimit="10" fill="none" stroke="#010101" stroke-linecap="round"/><path class="cls-1" d="M1394.54 1831.71s20.23 42.56 27.53 57.24c1.63 3.29 1 6-1.88 8a38.74 38.74 0 01-6.54 4c-8.89 4-17.64 8.43-26.86 11.41-14.22 4.61-27.67 11-41.19 17.1-26.67 12-54.12 22-81.15 33.13-15.56 6.39-31.66 12-45.8 21.58a29 29 0 01-13.24 3c-16.18 0-32.58-11-34.89-15a61.67 61.67 0 01-8.57-27.3c1.06-10.79 6.1-20.58 16.63-26.6a325.53 325.53 0 0146-21.38c29.19-11.12 58.91-20.78 88-32.25 21.94-8.66 44.13-16.6 65.3-27.11.46-.23 16.64-5.84 16.64-5.84m0-14a13.82 13.82 0 00-4.58.78c-17 5.91-17.29 6-18.28 6.53-16.07 8-32.58 14.36-50.06 21.12-4.64 1.79-9.43 3.64-14.15 5.5-15.85 6.25-32.26 12.09-48.13 17.73-13 4.64-26.51 9.43-39.74 14.47a338.46 338.46 0 00-48 22.3c-13.63 7.81-22 21.09-23.61 37.4a13.49 13.49 0 000 2.29c.78 11.66 4.08 22.24 10.38 33.3 3.93 6.88 14 12.49 18.08 14.58 6.76 3.41 17.26 7.49 29 7.49a42.94 42.94 0 0019.55-4.48 13.25 13.25 0 001.54-.91c10.45-7.08 22.4-11.85 35-16.9 2.69-1.08 5.47-2.19 8.22-3.31 9.31-3.82 18.87-7.59 28.13-11.24 17.58-6.93 35.76-14.1 53.46-22.09l5.23-2.37c11.76-5.35 22.87-10.4 34.52-14.17a195.11 195.11 0 0021.71-9c2.25-1 4.38-2 6.53-3a51.67 51.67 0 008.91-5.37c8.6-6.11 11.07-16.18 6.35-25.69-7.17-14.4-27.23-56.6-27.43-57a14 14 0 00-12.65-8z"/><path class="cls-1" d="M1065.28 1879.28a93.75 93.75 0 0112.09.71c11.64 1.51 23.24 3.22 34.86 4.87 17.68 2.51 35.45 4.49 53 7.83 7.39 1.41 15.6-.12 23.83 6.19-5.61 3.62-10 7.24-15 9.5-9.57 4.32-15 12.4-19.51 20.94-4.63 8.74-6.67 18.3-2.43 28.1a6.19 6.19 0 01.33 1.49c.41 2.54-1 4.56-3.12 4.56a3.78 3.78 0 01-1.24-.22c-13.11-4.43-26.88-6.29-40.08-10.19-8.92-2.63-18.23-2.52-27-5.33-9-2.88-9.64-3.24-10.4-12.59-1.16-14.31-5-28.07-8.29-42a55.46 55.46 0 01-1.65-9 4.3 4.3 0 014.57-4.93h.1m0-14h-.12a18.26 18.26 0 00-18.52 19.85 62.7 62.7 0 001.84 10.6l.15.67q.9 3.75 1.81 7.5c2.73 11.16 5.3 21.71 6.16 32.37.43 5.35.92 11.41 5.38 16.66 4 4.73 9.21 6.39 14.71 8.14a97.7 97.7 0 0016.2 3.32 81.1 81.1 0 0111.13 2.1c6.29 1.86 12.58 3.26 18.66 4.61a201.92 201.92 0 0120.89 5.42 17.93 17.93 0 005.73 1 17 17 0 0013-6 18.27 18.27 0 004-14.8v-.12a18.26 18.26 0 00-1.29-4.71c-1.37-3.15-2.38-7.81 2-16 3.72-7 7.34-12.22 12.9-14.73a76.55 76.55 0 0012.1-7.29c1.52-1.06 3.11-2.16 4.72-3.2a14 14 0 00.94-22.87c-9.24-7.1-18.32-7.81-25-8.33-1.8-.14-3.49-.27-4.77-.51-13-2.47-26.06-4.22-38.74-5.91-4.89-.65-9.95-1.33-14.89-2l-7.84-1.12c-8.89-1.27-18.08-2.59-27.18-3.77a106.8 106.8 0 00-13.9-.83z"/><path class="cls-3" d="M1208.34 884.51c-35.36 1.17-70.68 3.27-106 4.84-4.55.2-9.17-1.08-13.73-.93-11.26.37-22.49.42-33.76 2-11.1 1.51-22.56.12-33.78 1-47.69 3.77-95.45 2.19-143.19 2.5-19.49.13-39-.62-58.48-.27-11.7.2-23.31 1.85-35.14.91a129.68 129.68 0 00-30.58 1.64c-11.5 1.81-23.5.6-35.28.4a5.9 5.9 0 01-6-5.91c-.54-8.19-1.58-16.43-1.11-24.58 1.45-24.6.13-49.19-.56-73.72-.76-27.07-.69-54.16-1.73-81.23-.57-14.85-2.17-29.68-2.48-44.53-.41-19.42-2.46-38.75-1.7-58.27.57-14.75-1.28-29.68-3.13-44.39-2.83-22.52-1.52-45.1-2.11-67.65-.53-20 1-40.18-1.18-60-3.34-30.22-.86-60.43-2.44-90.6-.11-2 .24-4.15-.12-6.13-4-21.95-2.33-43.9-.49-65.9.42-5-.74-10.18-.87-15.28-.71-26.59-1-53.2-2.16-79.77-.4-9.11-2.73-18.11-2.95-27.37-.56-23.52-2.64-47-3.62-70.44-.7-16.72-2.55-33.59-.89-50.44a56.8 56.8 0 013.38-14.47c4-.29 7.06-.69 10.1-.69q46.18-.08 92.38 0c5.13 0 10.21.56 15.26-1.07a11.22 11.22 0 016 0c9.64 2.57 19.46 2 29.11 1 23-2.35 46.14-1.87 69.22-2.09 23.6-.23 47.21.19 70.8-.22 13.79-.23 27.56-1.92 41.36-2.27 17.45-.44 35.14-1.93 52.32.23 21.07 2.65 42 1.85 63 2 12.31.09 24.39-2.9 36.82-2.48 13.84.46 27.73-.29 41.6-.64 9.74-.24 19.46-.18 29.17-1.84 13.34-2.28 26.62.75 39.91 1.7 3.26.24 3.67 3.21 3.84 5.74 1.48 21.48 2.74 42.93 2.7 64.51 0 22-.5 44 1.77 65.93.42 4-.24 8.16-.36 12.25-.17 5.64-.77 11.31-.38 16.91 3.6 51.74 1.11 103.53 1.94 155.29.39 24.61 2 49.2 3 73.8.09 2.05.37 4.1.34 6.15a511.72 511.72 0 002.25 58.3c2.63 26.49 3.06 53.16 3.16 79.81 0 13.33 1.39 26.56 2.41 39.84 1.22 15.82 1.16 31.76 1.1 47.65-.13 34.36 1 68.66 2.79 103 1 20 .14 40 1.81 59.88s.12 39.9 3.81 59.61a100.73 100.73 0 011.45 10.66c.8 10.46-1 12.59-11.87 12.74-23.09.3-46.2.86-69.27.31-9.39-.23-18.22 2.33-27.48 2.63"/><path class="cls-1" d="M1277.71 893.91c2.61 0 5.22.07 7.83.16 2.8.09 5 1.34 5.36 4.35.79 6.06 4.17 11.62 3.45 18.74a124.78 124.78 0 01-39 5.81c-4 0-7.9-.15-11.86-.4h-.94a18.51 18.51 0 00-3.64.38 128.63 128.63 0 01-25 2c-4.93 0-9.87-.13-14.8-.24-2.37-.05-4.74-.13-7.1-.13-5.3 0-10.58.39-15.73 2.37a17.4 17.4 0 01-6.07 1.2 12 12 0 01-1.49-.09c-19.32-2.49-38.79-.65-58.2-2.59a229.08 229.08 0 00-23-1c-9.2 0-18.43.29-27.62.29h-14.88c-5.85 0-11.7 0-17.56.17a80.86 80.86 0 00-15.24 1.42c-6.1 1.31-12.2 1.49-18.35 1.6q-8.07.15-16.13.16c-11 0-22.05-.27-33.07-1.1a46.86 46.86 0 00-3.56-.12c-3 0-6 .2-9 .2h-4.87c-3.75 0-7.49.1-11.24.1a87.24 87.24 0 01-18.79-1.63 37.77 37.77 0 00-8.2-.78c-3.9 0-7.87.38-11.73.65-13.26.9-26.5 1.53-39.8 1.73-14.84.21-29.67 1.56-44.5 2.39-3 .16-6 .34-9 .34h-.25c-7.16 0-14.3-.48-21.46-.48-3.07 0-6.14.09-9.22.32-1.64.13-3 .21-4.1.21-5.1 0-5.3-1.74-6.29-9.14-.41-3-.95-6.06-1.57-10 9-1.79 17.82-4.31 27.2-4.31h.88q14 .24 28 .22c24.68 0 49.36-.41 74-.41q9 0 18.06.09c17.65.17 35.3.38 53 .38 28 0 56-.53 83.93-2.57 15.44-1.13 31-3 46.49-3 1.89 0 3.77 0 5.65.08 4.44.14 8.89.2 13.32.2 26.32 0 52.52-2.17 78.78-3.25 10.77-.44 21.54-.69 32.31-1.14 23.52-1 47-2.08 70.56-3.06 1.49-.06 3-.08 4.49-.08m0-14c-1.81 0-3.47 0-5.07.1-12.44.51-25.07 1.07-37.29 1.61-10.91.48-22.19 1-33.28 1.44-5.43.23-11 .41-16.36.58-5.21.17-10.6.34-15.94.56-8.87.37-17.83.86-26.5 1.34-17 .94-34.56 1.9-51.7 1.9-4.43 0-8.77-.06-12.88-.19-2-.06-4-.09-6.09-.09-11.81 0-23.53 1-34.86 2-4.17.35-8.47.72-12.65 1-24 1.75-49.59 2.53-82.91 2.53-15 0-30.39-.15-45.22-.31l-7.6-.07c-5.73-.06-11.68-.09-18.2-.09-12.4 0-25 .1-37.14.2s-24.62.21-36.9.21c-10.18 0-19.24-.07-27.71-.22h-1.12c-8.8 0-16.63 1.71-24.2 3.37-2 .43-3.86.84-5.74 1.21a14 14 0 00-11.09 15.9c.21 1.35.41 2.58.6 3.75.36 2.22.67 4.14.92 6v.12c.66 4.92 1.18 8.8 3.51 12.64s7.16 8.52 16.65 8.52c1.68 0 3.48-.12 5.17-.25 2.45-.18 5.11-.28 8.15-.28 3.45 0 6.91.12 10.57.24s7.16.23 10.85.24h.27c3.21 0 6.27-.17 9.23-.33h.53c4.72-.27 9.48-.59 14.07-.89 9.85-.66 20-1.34 29.86-1.49 12.68-.18 26-.76 40.54-1.76l2.76-.2c2.85-.21 5.54-.41 8-.41a25.15 25.15 0 015.21.45 101 101 0 0021.78 2h5.79c1.88 0 3.66-.05 5.45-.05h4.87c1.73 0 3.38-.05 5-.11 1.42-.05 2.76-.09 4-.09 1 0 1.78 0 2.51.08 10.32.78 21.17 1.14 34.12 1.14 4.94 0 10.14-.05 16.37-.16 7-.12 13.84-.36 21.06-1.92a68.15 68.15 0 0112.6-1.11c5-.11 10.51-.16 17.25-.16h14.88c4.71 0 9.45-.07 14-.15s9.1-.14 13.59-.14a214.63 214.63 0 0121.61.9c9.69 1 19.23 1.06 28.45 1.14 10.22.1 19.88.18 29.36 1.4a25.22 25.22 0 003.28.21 31.53 31.53 0 0011.09-2.13c2.67-1 5.77-1.44 10.71-1.44 1.59 0 3.21 0 4.93.08l1.87.05 2.79.06c4 .09 8.15.18 12.31.18a142.75 142.75 0 0027.76-2.31 5.29 5.29 0 01.92-.11c4.52.29 8.7.43 12.8.43a138.86 138.86 0 0043.27-6.48 14 14 0 009.63-11.91c.73-7.23-1-13.15-2.34-17.47a33.76 33.76 0 01-1.16-4.5c-1.25-9.57-8.8-16.22-18.79-16.54-2.62-.08-5.42-.16-8.28-.16z"/><path class="cls-3" d="M978.16 352.64c-15.33 2-30.74 1.18-46.13.95-3.59 0-7.19.08-10.78.31a458.24 458.24 0 01-69.25-1.18c-3.56-.31-7.24-1-10.69-.39-12.2 2-24.51 2.12-36.8 2.7-6.65.31-13.32.3-20 .8-5.84.44-8.16 2.89-8.14 8.79q.1 29.24.58 58.48c.22 14.86 1.05 29.72.89 44.58-.27 24.54-1.73 49 .4 73.63 2.59 30.05 1 60.3 3.51 90.45 2 23.43.87 47.1 2.11 70.61 1.07 20 0 40-1.2 59.91a98.74 98.74 0 00-.08 15.38c1.25 12.64 0 25.56 3.85 39.06 16 0 31.87.29 47.72-.1 12.28-.31 24.53-2.06 36.79-2.12 18.48-.09 36.92-.33 55.33-2.07 14.29-1.34 28.7-2.36 42.92-.65 8.89 1.07 17.36.36 26-1l29.46-.22c5.08-.45 10-2.11 15.26-1 6.57 1.42 13.22 1 19.91.14a235 235 0 0124.57-1.76c41-.61 82.06-1 123.09-1.49q8.41-.11 16.82-.63c4.13-.26 7.4-1.68 6.86-8 0-.51-.06-1-.07-1.54-.5-22-.86-44.07-1.53-66.09-.39-12.82-1.89-25.63-1.79-38.44.36-49.26-.64-98.46-4.06-147.61-.54-7.67-.12-15.44-1.06-23-2-16.37-2.06-32.8-1.39-49.18.82-20-.45-40-2-59.89-.78-10.25-1.49-20.44-1-30.74s.42-20.45-2-31.13c-9.31-.83-18.44-1.91-27.6-2.38-5.6-.28-11.24.47-16.86.57-26.66.47-53.36.27-80 1.48-21.53 1-43 1.11-64.54.72a163.08 163.08 0 00-21.5 1.41z"/><path class="cls-3" d="M1016.47 803.54c-1-11.71-1.77-23.46-2-35.21-.45-21-.82-42-2-63-.7-12.73-.38-25.57-.9-38.37-1.55-37.91-4.87-75.77-3.79-113.78.36-12.81-1-25.57-2.31-38.37-1.77-17.8-1.3-35.82-2.73-53.67-2.73-33.82.89-67.76-2.35-101.55"/><path class="cls-1" d="M1201.93 93c5.55 0 7.19 1.55 7.44 6.78.87 19.41 1.86 38.85 2.28 58.29.39 17.41 0 34.83.13 52.28a119.41 119.41 0 001.13 12.17c.35 3.06 1.22 6.08 1.22 9.13 0 8.06 1.89 16.42-2.7 24a41.37 41.37 0 01-11.25 1.32c-3.33 0-6.68-.22-10-.32-2.19-.07-4.42-.21-6.63-.21a32.22 32.22 0 00-5.65.43 245.53 245.53 0 01-43.38 3.82q-8.87 0-17.76-.61c-7.16-.47-14.32-.67-21.48-.67-24.07 0-48.1 2.19-72.15 3.08-1.84.06-3.68.5-5.5.5h-.63c-10.9-.69-21.79-1-32.68-1-28.08 0-56.13 1.76-84.21 2.71-16 .54-32 .87-47.93.87-14.78 0-29.56-.28-44.35-1-2.22-.1-4.46-.14-6.69-.14-8 0-16 .51-24 .68h-.3c-3.48 0-5.46-1.68-5.81-5.28-.28-3.05-.73-6.1-.83-9.19-1.09-41-3.73-81.9-2.83-122.9.16-6.68.13-13.33.58-20 .51-7.17 2-8.58 9.74-8.9 19.49-.74 39-1.61 58.51-1.61 7.6 0 15.2.13 22.81.45 17.68.76 35.37 1.27 53.07 1.27 13.08 0 26.16-.28 39.24-1 1.34-.07 2.68-.09 4-.09 2.24 0 4.48.06 6.71.06 8.11.46 16.22.62 24.32.62 21.15 0 42.29-1.14 63.43-1.33 18.41-.16 36.82-.93 55.23-1.44h.78a2.69 2.69 0 00.76-.08 61.85 61.85 0 0115.4-1.74c9.08 0 18.15 1.36 27.24 1.65h2.42c7.88 0 15.77-1.18 23.67-1.65 8.71-.48 17.42-1 26.12-1.16h.53m0-14h-.84c-8.92.2-17.87.69-26.53 1.17h-.1c-3.22.19-6.37.48-9.41.76-4.72.44-9.18.86-13.44.86h-1.95c-3.68-.12-7.39-.43-11.33-.76-5.27-.44-10.72-.9-16.38-.9a77.09 77.09 0 00-17.35 1.81c-5.48.16-11 .34-16.39.51-12.67.4-25.76.82-38.55.93-9.78.09-19.65.38-29.19.66-11.22.33-22.81.67-34.12.67-8.63 0-16.33-.19-23.54-.6h-7.49c-1.8 0-3.32 0-4.78.11-12.21.63-24.81.93-38.48.93-15.77 0-32.44-.4-52.47-1.25-7.42-.32-15.07-.47-23.41-.47-17.21 0-34.55.67-51.32 1.32l-7.73.3c-5.65.24-11.56 1.07-16.44 5.55-5.89 5.4-6.42 12.79-6.67 16.34v.05c-.34 5.12-.42 10.14-.5 15 0 1.87-.06 3.73-.1 5.6-.64 29 .47 58.19 1.55 86.43.46 12.2.94 24.81 1.27 37.18v.06c.08 2.68.36 5.22.61 7.45.1.88.19 1.75.28 2.62 1 10.75 9 18 19.74 18h.61c3.27-.07 6.54-.2 9.71-.32 4.84-.19 9.41-.36 14-.36 2.19 0 4.18 0 6.08.12 14.33.66 29 1 45 1 14.93 0 30.76-.29 48.4-.88 9-.3 18-.69 26.8-1.07 18.7-.8 38-1.63 56.94-1.63 11.5 0 21.91.3 31.81.92h1.51a36.89 36.89 0 004.72-.36c.43-.06 1-.14 1.22-.14h.08c9.09-.33 18.26-.86 27.12-1.36 14.65-.84 29.8-1.71 44.51-1.71 7.37 0 14.09.21 20.55.64 6.25.42 12.54.64 18.69.64a260.58 260.58 0 0045.85-4 18.8 18.8 0 013.18-.21c1.22 0 2.54.06 3.93.11l2.26.09c1.09 0 2.17.08 3.26.13 2.32.1 4.71.2 7.2.2a54.33 54.33 0 0015-1.84 14 14 0 008.2-6.23c5.79-9.55 5.28-19.34 4.9-26.49-.09-1.7-.17-3.31-.17-4.76a44.28 44.28 0 00-.91-8.19c-.16-.93-.32-1.82-.4-2.52l-.36-3a72.3 72.3 0 01-.68-7.71v-20.75c0-10.37.09-21.09-.14-31.72-.35-16.09-1.09-32.37-1.82-48.11q-.24-5.25-.47-10.49c-.61-12.83-8.42-20.16-21.43-20.16z"/><path class="cls-4" d="M858.4 187.34c15.24 2.48 43.65 28.93 51.39 34.74 8.51 6.38 22.33 14.17 31.9 15.95m-60.96-70.54c39.7 29.78 101.37 71.95 101.37 71.95m-73.37-90.73c51.39 33.67 120.15 80.1 120.15 80.1m-90.38-97.47c13.12 13.47 59.9 44.31 59.9 44.31l63.45 40.4m21.97-14.53s-58.48-40.41-99.6-74.43m49.98 6.38c12.66 9.78 34.18 25.4 41.85 30.93a33 33 0 005.58 3.25c8.94 4.11 22.85 11.89 27 15.08m-14.24-32.07c-34 23.5-122.57 81.61-122.57 81.61m45.35-.61c25.18-14.69 64.63-43.23 77.64-52.88m-172.07 52.04c73.45-43.23 136-77.65 142.7-83.94"/><path class="cls-4" d="M888.33 224.52c84.36-46.58 68.68-37.77 91.77-50.36s62.67-39 62.67-39M866.09 209c57.07-34.41 137.23-80.16 137.23-80.16m-35.25-1.27c-36.09 16-60 32.74-81.42 50-9.71 7.8-23.92 10.07-23.92 10.07"/></g></g></svg>