<svg xmlns="http://www.w3.org/2000/svg" viewBox="0 0 703.17 1569.43"><defs><style>.cls-1,.cls-4{fill:none;stroke:#1d1d1b;stroke-linecap:round;stroke-miterlimit:10}.cls-1{stroke-width:16px}.cls-3{fill:#1d1d1b}.cls-4{stroke-width:17.67px}</style></defs><g id="Layer_2" data-name="Layer 2"><g id="Layer_1-2" data-name="Layer 1"><path class="cls-1" d="M267.16 1547.35l13.19-14.58 45.13-18c-9.72 12.49-18.05 41-18.05 41 59.24-24.42 118.47-36.5 131.89-39a1.24 1.24 0 011.28 1.88c-9 14.62-15.82 35.78-15.82 35.78 43.34-14.42 83-47.87 99.23-59.08a2.41 2.41 0 013.76 2.35l-8.26 38.66a.7.7 0 001 .77c47.14-23.32 75.88-42.4 86.89-41 8.1 1 18.79-1.67 24-3.19a1 1 0 011.07 1.54c-8.93 11.92-20 38.69-22.45 44.72a.79.79 0 00.82 1.09c31.08-5.4 82.68-21.94 82.68-21.94"/><path class="cls-1" d="M396.91 1519.73c-128.41-24.59-86.06-157.11 19.13-98.36 114.75 34.15 163.96 49.18 163.96 49.18m-11.72 39.98l50.55-132.43c34.79 3.32 76.34-17.46 76.34-17.46m-96.46 95.72c43.78-13.35 95-38.58 95-38.58m-264.93 5.94l27.46-77.18m-17.81 21.52c-192.93-61.58-115.76-269.35-115.76-269.35m370.27 188.47c-10.38-3.71-37.1-24.48-37.1-24.48l-97.94-86.82M196.44 742.74c82.22 120.39 302.46 105.71 409.64-35.24"/><path class="cls-1" d="M566.17 751.63l2.22 75a3 3 0 01-3.82 2.94l-86.55-26m-250.53-24.36l-10.15 76.34a1.1 1.1 0 001.6 1.12l78.94-41.2M374 630.83c1.56-19.67-8.47-33.91-28.14-35.47s-37 15.41-38.56 35.09 13.87 32 33.54 33.54 31.55-13.48 33.16-33.16zm83.62-8.48c0-17.17-14.06-28.88-33-28.88s-34.31 13.92-34.31 31.09 15.36 31.1 34.31 31.1 33-16.14 33-33.31zM457.23 743c0-3.53-.11-9.46-12-12.94-10.76-3.14-32.2-4-53.51-4-44.93 0-87.14 19.9-87.14 26.61s34.11 16.19 79 16.19 73.65-19.13 73.65-25.86z"/><path class="cls-1" d="M307.64 747.27l74.72-118.65a2.43 2.43 0 014.13.07l61.22 99.45"/><path d="M689.34 1056.6c-101.16 49.85-141.41 2.56-141.41 2.56-57.59 131.43-194.19 67.93-210.45 31.16-175 75.91-173-90.89-173-90.89-170.07 2.93-120.13-130.19-95.3-157.06-128.07-80-18.19-150.19 0-161.09C17.77 594 113 526.78 165.94 542c-30.77-155.51 193-158.47 211.12-101.16C525 323 614.39 445.56 599.91 493.62c54.35-28.13 92.36-2.93 92.36-2.93" stroke-linejoin="round" stroke-width="16" fill="none" stroke="#1d1d1b" stroke-linecap="round"/><path class="cls-3" d="M349.75 630.09c0-5.42 3.86-12.34-3.94-12.34s-16.77 8.56-16.77 14 7.67 8.17 15.47 8.17 5.24-4.42 5.24-9.83zm83.45-5.24c0-5.66-4.74-10.55-7-10.55s-12 3-12 8.66 1.39 12 3.68 12 15.32-4.44 15.32-10.11z"/><path class="cls-4" d="M432.23 404.48l-49.62-115.79a10.77 10.77 0 015.86-14.23l297.78-120.63"/><path class="cls-4" d="M285 404.48l-85.12-181.13a5.81 5.81 0 013-7.81L690.75 8.83"/><path class="cls-3" d="M687.11 314l-44.58-1-22.29-.5c-7.43-.15-14.86-.32-22.29-.56l-11.14-.34-11.14-.44c-7.42-.42-14.84-.84-22.25-1.4-14.83-1.08-29.67-2-44.49-3.29a6.22 6.22 0 01.25-12.41h.28c7.45-.34 14.89-.45 22.33-.39s14.87.11 22.29.37l5.57.19 2.79.1 2.78.19c3.71.25 7.4.93 11.09 1.51a83.56 83.56 0 0011.1 1.31c3.71.17 7.43.17 11.16.05s7.45-.42 11.18-.65c1.87-.13 3.73-.25 5.59-.32s3.73-.13 5.59-.16c3.72 0 7.43.1 11.14.3s7.42.36 11.13.59c14.84.9 29.66 2.26 44.44 4.45l.52.08a6.21 6.21 0 01-1 12.35zm-1.02 46.44q-41.34-1-82.61-3.85t-82.34-7.71a6.48 6.48 0 01.24-12.9l1.27-.1c3.48-.27 6.92-.33 10.36-.27 1.72 0 3.43.07 5.14.13s3.42.16 5.13.26c3.42.15 6.81.53 10.22.81s6.8.69 10.19 1.13l5.09.63 5.08.72 10.14 1.42 10.18 1.41c3.4.42 6.8.85 10.2 1.18 6.81.71 13.64 1.16 20.47 1.65s13.65.94 20.49 1.29 13.67.58 20.51.82 13.69.31 20.53.3a6.55 6.55 0 110 13.09h-.36zM687 398a93.77 93.77 0 01-14.75 1.52c-1.23 0-2.46.1-3.68.1h-3.67c-1.23 0-2.45 0-3.67-.08s-2.45-.1-3.67-.18-2.44-.16-3.66-.28l-3.65-.36c-2.43-.32-4.86-.65-7.28-1.11-4.83-.9-9.65-2-14.47-3s-9.66-1.66-14.51-2.29l-14.54-2-14.55-1.91c-2.43-.33-4.86-.61-7.3-.9s-4.86-.63-7.3-.87a4.57 4.57 0 01.88-9.1l.57.06 7.21.79 7.22.74c4.81.5 9.63.93 14.44 1.36 9.63.9 19.28 1.61 28.94 2.27s19.31 1.33 29 2.26c4.83.5 9.65 1 14.47 1.65 2.41.32 4.82.62 7.23 1s4.83.72 7.23 1.2a4.62 4.62 0 010 9.06z"/><path stroke-width="9.82" stroke-miterlimit="10" fill="none" stroke="#1d1d1b" stroke-linecap="round" d="M688.5 428.08l-67.44-5.62"/><path stroke-width="10.47" stroke-miterlimit="10" fill="none" stroke="#1d1d1b" stroke-linecap="round" d="M688.5 268.48l-116.97-7.49"/><path stroke-width="11.12" stroke-miterlimit="10" fill="none" stroke="#1d1d1b" stroke-linecap="round" d="M693.14 225.94l-69.62-2.82"/><path class="cls-3" d="M689.62 188.29a10.37 10.37 0 01-3.09 4.25 4.57 4.57 0 01-3.09 1 41.56 41.56 0 01-6.18-.52 35.11 35.11 0 01-6.18-1.59 25.54 25.54 0 01-6.18-3.17l-2.08-1.48a5 5 0 012.08-9c1-.18 2.06-.28 3.09-.4s2.06-.23 3.09-.31c2.06-.16 4.12-.29 6.18-.35s4.12-.09 6.18-.12h1.55c.55 0 1 .09 1.54.19a10.77 10.77 0 013.09.95 4.47 4.47 0 012.1 5.82z"/><path class="cls-3" d="M680.74 160c-1.73 5.6-3.42 11.21-5.2 16.79-.85 2.8-1.82 5.56-2.59 8.39l-2.29 8.49-2.29 8.48c-.74 2.83-1.58 5.63-2.19 8.51-1.31 5.71-2.71 11.4-4.06 17.1q-7.68 34.32-12.78 69.18t-8.15 69.95c-2 23.39-3.72 46.86-6.23 70.17l-.08.79a4.89 4.89 0 01-9.74-.79c.33-6 .62-11.93 1-17.87l.53-8.9.62-8.88c.36-5.92.83-11.84 1.24-17.76s1-11.81 1.45-17.73q3-35.46 8.3-70.69l2.78-17.59 3.23-17.52c1-5.86 2.33-11.65 3.56-17.46l1.87-8.72.94-4.35 1.08-4.33q8.15-34.72 19.77-68.63a4.9 4.9 0 019.32 3zm-90.59 223.93c3.22-28.47 7.82-56.66 12.8-84.76q3.75-21.06 7.87-42.06t8.54-41.94a4.25 4.25 0 018.34 1.66v.13q-1.95 10.46-3.82 21L622 248.43l-1.9 10.5c-2.57 14-4.89 28-7.38 42s-4.73 28-6.83 42l-1.63 10.51-.89 5.24c-.27 1.75-.55 3.5-.87 5.24-.61 3.49-1.28 7-1.83 10.47l-1 5.23-.5 2.61-.56 2.61-.09.44a4.25 4.25 0 01-8.37-1.37zm-32.28-10.38c1.14-5.75 1.58-11.61 2.23-17.43s1.08-11.68 1.72-17.51 1.45-11.62 2.39-17.4l2.79-17.35 2.75-17.35 3-17.32c1-5.77 1.95-11.55 3-17.3s2.1-11.53 3.25-17.28a3.93 3.93 0 017.77 1.09v.09c-.47 5.86-1.11 11.68-1.69 17.51s-1.29 11.66-2 17.47L581 288.23l-2.28 17.42-2.42 17.4c-.79 5.8-1.68 11.59-2.77 17.35s-2.43 11.47-3.69 17.21L568 366.2a68.28 68.28 0 01-2.34 8.53l-.35.93a3.87 3.87 0 01-7.41-2.11zm137.9-54.16l-2 9.42-1.94 9.43c-1.34 6.27-2.47 12.61-3.68 18.91s-2.23 12.67-3.26 19-2.08 12.69-3.09 19.05l-2.8 19.11-1.44 9.55c-.44 3.18-1 6.35-1.51 9.53-1 6.36-1.92 12.73-3.11 19.07a155.71 155.71 0 01-4.69 18.84l-.18.55a4.57 4.57 0 01-8.92-1.62c.31-6.54.92-13 1.52-19.46s1.25-12.92 2-19.38c1.41-12.92 2.91-25.83 4.85-38.7 1-6.42 2.22-12.81 3.42-19.21.57-3.21 1.29-6.38 2-9.56s1.41-6.37 2.21-9.53A281.05 281.05 0 01686.92 317l.11-.28a4.59 4.59 0 018.74 2.66z"/></g></g></svg>