<svg xmlns="http://www.w3.org/2000/svg" viewBox="0 0 1573.26 2035.92"><defs><style>.cls-1{fill:#010101;}.cls-2,.cls-3{fill:none;stroke:#010101;stroke-linecap:round;}.cls-2{stroke-linejoin:round;stroke-width:14px;}.cls-3{stroke-miterlimit:10;stroke-width:9.86px;}</style></defs><g id="Layer_2" data-name="Layer 2"><g id="Layer_1-2" data-name="Layer 1"><path class="cls-1" d="M926.73,989.84c9.25,0,18.51.79,27.68,1.66,10.33,1,20.39,4.73,30.58,7.15,24.47,5.82,48.75,12.75,73.48,17,19,3.27,38.15,6.36,57.18,9.8,3.6.65,7.16,1.47,10.72,2.33,8.6,2.06,17.23,3.83,26.15,3.83h.83c12.61,0,24.28,2,34.61,10.85,7.06,6,16,9.85,24.13,14.66,16.84,10,31.21,23.05,46.38,35.09a379,379,0,0,1,56.25,54.87c8.36,10.08,17.75,19.24,26.21,29.32,13.28,15.81,22.83,33.89,34.17,50.87,20.77,31.08,31.69,66,39.67,102,2.72,12.22,4.11,24.79,5.26,37.28,1.68,18.23,3.36,36.49,2.78,56.36,1.8,19-.73,39.43-2.76,59.72-3.35,33.51-11.37,66-26,96.63-5.4,11.33-9.29,23.38-14,35a303.59,303.59,0,0,1-30.5,56.63c-13.79,20.46-28.56,40.21-45.24,58.43-4,4.42-5.15,9.21-3.33,14.47,2.22,6.43,5,12.65,7.76,18.9,11.48,26.45,23,52.86,34.45,79.34,1.22,2.85,1.52,6.08,2.34,9.12,3.2,11.9,1.93,15-9.63,17.91-39.16,10-76.82,24.65-115.53,36-8.52,2.5-13,4.21-15.73,4.21-4.18,0-4.12-4-8-15.4-6.56-19.36-12.61-38.9-18.88-58.36-.64-2-1.08-4.07-1.9-6a5.37,5.37,0,0,0-4.91-3.07,4.88,4.88,0,0,0-3.1,1.08c-16,13-35.62,17.3-54.4,23.82-19.91,6.92-40.57,10.37-61.17,14.11-5.66,1-11.53.78-17.26,1.49a524.5,524.5,0,0,1-64.31,3.71c-13.62,0-27.24-.43-40.86-1.16-17.19-.93-34.24-4.61-51.35-7.09-2.06-.3-4.06-1.11-6.13-1.28a5.68,5.68,0,0,0-.59,0c-3.7,0-7.25,2.78-6.8,6.38,1.05,8.44-3,15.17-5.88,22.46-4.55,11.7-8.72,23.56-13,35.37-1.95,5.36-3.19,7.37-6.36,7.37a20.38,20.38,0,0,1-5-.92c-10.12-2.76-20.15-5.83-30.28-8.53-23.18-6.18-46.18-12.92-69.17-19.78-11.5-3.43-23.25-6.19-34.64-10.08-9.58-3.27-10.2-4.41-7.43-13.52,5.79-19,11.86-38,17.53-57.11,2.37-8,4.24-16.18,5.9-24.37,1.11-5.5-.51-9.8-5.67-13.41-9.87-6.92-19.24-14.57-28.55-22.24-5.66-4.66-11.34-9.48-16.11-15-17.77-20.62-37.39-39.68-52.65-62.46-4.36-6.5-9.77-12.32-14.93-18.25a5.69,5.69,0,0,0-4.33-2,5.86,5.86,0,0,0-4.12,1.76,63.28,63.28,0,0,0-8.18,9.52c-23.78,35.59-53.35,66-84.47,95.09-18.15,17-39.43,29.44-60.2,42.72-33.59,21.47-70.54,34.67-108.67,44.77-17.69,4.68-35.95,7.28-54,10.52-11.85,2.12-23.76,4-35.72,5.37a256.31,256.31,0,0,1-26.73,1.22c-8.54,0-17.09.31-25.62.31-11.88,0-23.75-.51-35.59-2.81a132.32,132.32,0,0,1-22.65-6.2c-4.4-1.7-9-3-13.27-4.9a9.63,9.63,0,0,0-3.86-.91c-2.27,0-4.2,1.11-5.84,3.3-3.58,4.77-8.64,7.56-13.52,10.65a36.81,36.81,0,0,1-20,6,46.24,46.24,0,0,1-19-4.47c-10.24-4.63-12.88-14.74-14.5-24.66a23.23,23.23,0,0,1,3.24-16.67,25.64,25.64,0,0,0,3.26-7.07c1.35-5-.57-9.71-5.79-11.2-20.31-5.78-31.88-37.6-20.84-59.84a32.82,32.82,0,0,1,18.21-16.61,54.12,54.12,0,0,1,18.92-3.6,47.7,47.7,0,0,1,18,3.54c9.26,3.72,17,9.36,20,18.84,4.89,15.54,16.26,20.85,30.9,22.19,2.09.2,4.22.16,6.28.53,3.45.62,5.74,2.73,6,6.27.34,4.71.19,9.44.41,14.15a70.17,70.17,0,0,0,1,9.28,3.12,3.12,0,0,0,3.31,2.39,4.69,4.69,0,0,0,3-1.1,12.17,12.17,0,0,0,4.55-9.62c0-5.24-.19-10.49-.11-15.74.05-3.55,1.79-5.88,5.5-6.5,11.89-2,23.71-4.58,35.68-5.89a121.63,121.63,0,0,0,23-5,16.38,16.38,0,0,1,4.49-.89c2.62,0,3.72,1.63,4.51,5.62,1.32,6.66,2,13.44,3,20.15a3.53,3.53,0,0,0,2.83,3.25,4.18,4.18,0,0,0,.92.1,4.23,4.23,0,0,0,4-3.07,45.82,45.82,0,0,0,.41-23.26c-1.47-6.47-.83-7.59,4.62-9.64a456.19,456.19,0,0,0,69.7-32.8,11,11,0,0,1,5.4-1.74c3.17,0,5.38,2.31,6.06,6.89,1.24,8.28,4.68,16.19,4.12,24.77a7.64,7.64,0,0,0,1,4.5,5.5,5.5,0,0,0,3.79,2.26h0a5.51,5.51,0,0,0,3.73-2.39,8.11,8.11,0,0,0,1.06-4.49c-.21-11.49.92-23.19-4.9-33.89-1.86-3.43-.55-6,2.42-8,1.73-1.19,3.44-2.42,5.2-3.56,16.74-10.82,34.13-20.64,49.35-33.72,2-1.68,3.64-2.52,5.18-2.52,1.93,0,3.62,1.31,5.31,4,4.82,7.47,9,15.33,13.59,23a5.2,5.2,0,0,0,4.32,2.91,4.63,4.63,0,0,0,.81-.08c3.18-.6,3.93-3.32,3.82-6a22.19,22.19,0,0,0-1.51-7.63,70.12,70.12,0,0,0-6.4-12.61c-10.83-15.71-11.6-12.65,2.74-26.57,14.72-14.27,28.78-29.09,41.37-45.28,1-1.24,1.76-2.63,2.8-3.8,2.58-2.89,4.7-4.35,6.89-4.35,1.94,0,3.92,1.13,6.33,3.41,4.57,4.33,8.74,9.08,13.2,13.54a99.39,99.39,0,0,0,8.12,7.37,5.29,5.29,0,0,0,6,.38,5.38,5.38,0,0,0,2-6.94,26.94,26.94,0,0,0-5-7.83c-5.76-6.1-11.85-11.9-17.79-17.84-4.72-4.73-5-5.87-1-10.41,10.93-12.3,18.65-26.69,26.06-41.1,7.86-15.3,14.59-31.22,21.09-47.17,3.72-9.15,6.25-18.73,5.65-29-.59-9.92-.8-20,1.89-29.74a18.83,18.83,0,0,0,.41-4.7c.53-36.42,10.2-71.45,17.19-106.8,3.53-17.84,11.32-34.84,17.05-52.26,9.89-30.09,25.22-57.59,40.87-84.86,8.58-15,17.76-29.71,30.09-42.16,5.16-5.21,9.73-11,14.41-16.67,9.76-11.83,21.83-21.3,33.67-30.71,16-12.7,31.68-25.81,48.71-37.25,21.82-14.66,44-28.51,68.45-38.39,24.33-9.82,48.8-19.14,74.07-26.38,11.21-3.21,22.74-3.67,34.1-5.27a127.33,127.33,0,0,1,17.66-1.14M605.26,1295.09l-1.45,0c-.29,0-.58,0-.87,0a43.62,43.62,0,0,0-11.51,2.06c-2.42.68-4.63,2.36-6.72,3.89-2.4,1.75-1.5,6.82,1.34,8a12.66,12.66,0,0,0,4.4,1.13h.09c4.64-.07,9.28-1.49,13.91-1.49a16.15,16.15,0,0,1,7.49,1.67c.38,7.24.59,14.5,1.21,21.73.34,4-1.77,5.77-4.91,6.91-4.93,1.79-10,3.3-14.86,5.16a12,12,0,0,0-6.76,6.22c-1,2.24.81,5.94,3.26,6h.76a29.76,29.76,0,0,0,7-.61c5.59-1.38,11.06-3.24,16.64-4.7a7.81,7.81,0,0,1,2-.28,3.78,3.78,0,0,1,3.59,2c3.9,7.38,10.95,12.72,13.91,21-2.19,2.51-4.19,4.92-6.32,7.22-3.55,3.84-7.3,7.5-10.74,11.43a5.58,5.58,0,0,0-.32,7.27,4.21,4.21,0,0,0,3.44,1.79,6.13,6.13,0,0,0,3.6-1.33c5-3.77,10.19-7.25,14.29-12.22,2.87-3.48,6.26-5.52,10.19-5.52a14.58,14.58,0,0,1,6.59,1.75c3.7,1.88,7.86,2.88,11.82,4.23,6.2,2.12,7.19,3.71,6,10.43-.67,3.61-2,7.12-2.37,10.74a45.8,45.8,0,0,0,.28,10.91c.16,1.15,2,2.62,3.27,2.93a3.94,3.94,0,0,0,.87.09,4.69,4.69,0,0,0,3.37-1.24,21.43,21.43,0,0,0,3.48-6.83c1.83-6,3.22-12.16,5-18.18.78-2.62,2.63-4.67,5.61-4.71,9-.11,17.59-2.63,26.25-4.7a6.37,6.37,0,0,1,1.44-.18c2.23,0,3.64,1.46,4.06,4,.93,5.69,1.65,11.41,2.71,17.07a4.91,4.91,0,0,0,4.22,4.11,6,6,0,0,0,.93.07c2.49,0,4.12-1.64,5.31-3.8a13.48,13.48,0,0,0,1.19-10.71c-4.15-12.43-.56-21.12,11.33-26.7,2.76-1.3,5-3.69,8.52-6.36,6.74,5.49,12.4,10.12,18.08,14.71a6.79,6.79,0,0,0,4.27,1.68,6.37,6.37,0,0,0,3-.81c2.59-1.4,3.35-3.9,3.59-6.57a7,7,0,0,0-3.17-6.75c-3.91-2.62-8-5-11.87-7.67-4.25-2.88-4.82-5.25-2.34-9.13,3.39-5.29,7-10.46,10.22-15.83,1.24-2.06,2.72-3,4.62-3a7.72,7.72,0,0,1,1.89.26c6.1,1.49,12.16,3.22,18.32,4.38a7,7,0,0,0,1.41.14c3.92,0,6.27-3.38,5.68-7.87-.46-3.49-2-5.86-5.68-6.48-5.14-.87-11.58.26-14.91-3.83-4.07-5,.83-10.75,1.67-16.21a38.43,38.43,0,0,0-.48-15.59,4.92,4.92,0,0,0-3.27-2.93,2.65,2.65,0,0,0-.5,0,4.8,4.8,0,0,0-3.57,1.62,28.7,28.7,0,0,0-3.83,8.51c-3.24,14-9.79,26.48-16.73,38.86-10.06,18-23.8,30.93-43.55,38.76a76.7,76.7,0,0,1-28.57,5.7c-11.38,0-22.56-2.7-33.88-7.71-23.34-10.32-33.11-36.15-31.7-55.06a87.4,87.4,0,0,1,10.38-36c2.51-4.6,5.26-9.07,7.75-13.68,1.41-2.61,1-5.12-1.54-6.86a4.28,4.28,0,0,0-2.45-.83c-1.67,0-3.16,1.11-4.61,2.2a7.39,7.39,0,0,0-1.08,1.15c-5.93,6.72-12,13.69-14.18,22.42-2.24,9-7.17,12.3-15.47,12.3M926.73,975.84a139.88,139.88,0,0,0-19.6,1.28c-3.11.43-6.25.78-9.57,1.15-8.54,1-17.37,1.93-26.44,4.52-27.09,7.76-53.35,17.93-75.47,26.86-26.07,10.52-49.54,25.33-71,39.75-14.4,9.68-27.88,20.49-40.91,30.95-2.9,2.32-5.8,4.65-8.71,7l-1.11.88c-11.92,9.48-24.25,19.28-34.64,31.88l-2.3,2.8c-3.81,4.64-7.4,9-11.26,12.93-13.48,13.62-23.49,29.69-32.29,45-17,29.66-31.91,56.71-42,87.45-1.79,5.45-3.78,10.81-5.88,16.5-4.43,12-9,24.31-11.6,37.43-1.55,7.85-3.28,15.87-4.95,23.63-5.94,27.57-12.07,56.07-12.5,85.68v.47c0,.37,0,.85,0,1.15-3.21,12-2.85,23.74-2.26,33.84.41,6.86-1.07,14.14-4.64,22.91-6.12,15-12.85,31-20.58,46.06-7.13,13.88-14.34,27.26-24.06,38.18-2.15,2.42-6.45,7.26-6.36,14.3-6.47,1.77-10.74,6.56-12.35,8.36a35.31,35.31,0,0,0-2.77,3.64c-.24.35-.49.71-.63.89-10.74,13.81-23.47,27.74-40.06,43.82-1.15,1.11-2.19,2.11-3.15,3-5.85,5.59-10.17,9.73-11.53,16.14-4.32.41-8.54,2.37-12.57,5.82-10.86,9.34-23,16.95-35.86,25-3.92,2.45-8,5-12,7.57-1.36.88-2.6,1.74-3.81,2.58l-1.68,1.17a22.18,22.18,0,0,0-7.29,8,21,21,0,0,0-2.11-.11,24.68,24.68,0,0,0-12.46,3.65,439.85,439.85,0,0,1-67.57,31.79c-2.43.91-6.94,2.61-10.3,6.64a19,19,0,0,0-5.1-.69,28.82,28.82,0,0,0-8.64,1.52,106.35,106.35,0,0,1-20.36,4.45c-8.76,1-17.33,2.54-25.63,4.06-3.57.66-7.26,1.34-10.85,1.94a21.18,21.18,0,0,0-10,4.46,22.32,22.32,0,0,0-8.82-3.56,44.13,44.13,0,0,0-5.74-.58c-.63,0-1.24-.06-1.72-.11-12.84-1.18-16.63-5.46-18.82-12.45-3.91-12.41-13.37-21.71-28.12-27.63a62.05,62.05,0,0,0-23.18-4.55,68.31,68.31,0,0,0-23.78,4.47,46.6,46.6,0,0,0-25.89,23.52c-7.61,15.33-7.68,34.58-.2,51.51,5.3,12,13.84,21.12,24,25.85a37.07,37.07,0,0,0-4.89,25.9c1.32,8.07,4.4,27,22.55,35.15a60.05,60.05,0,0,0,24.77,5.72,50.84,50.84,0,0,0,27.52-8.17c.57-.37,1.15-.72,1.72-1.08a62.59,62.59,0,0,0,12.38-9.35c1.69.63,3.35,1.21,5,1.77s3.35,1.15,4.88,1.75a143.38,143.38,0,0,0,25,6.88c14,2.72,27.8,3.07,38.26,3.07,4.85,0,9.73-.08,14.45-.16,3.7-.07,7.53-.13,11.25-.15a269.88,269.88,0,0,0,28.2-1.3c10.79-1.21,22.09-2.91,36.64-5.51,4.16-.75,8.44-1.48,12.58-2.18,13.95-2.38,28.38-4.84,42.55-8.59,46.45-12.31,82.23-27.08,112.62-46.5,3-2,6.1-3.88,9.15-5.81,18-11.37,36.63-23.12,53.06-38.48,28.15-26.29,60.44-58.45,86.56-97.55.18-.27.37-.53.57-.8a104.75,104.75,0,0,1,7.72,9.85c11.3,16.87,24.75,31.67,37.76,46,5.29,5.82,10.76,11.84,15.92,17.82,5.48,6.36,11.8,11.72,17.81,16.67,10.1,8.33,19.28,15.79,29.25,22.79-1.81,8.87-3.54,16-5.45,22.45-3.33,11.2-6.86,22.59-10.28,33.6-2.39,7.67-4.85,15.59-7.23,23.42-1.51,5-3.79,12.47.21,19.75,3.77,6.89,10.9,9.32,16.1,11.09,7.53,2.57,15.12,4.65,22.46,6.67,4.2,1.15,8.54,2.34,12.7,3.58,22.12,6.6,45.86,13.57,69.56,19.89,5.35,1.43,10.83,3,16.13,4.53,4.59,1.32,9.34,2.69,14.08,4a33.22,33.22,0,0,0,8.72,1.41,18.34,18.34,0,0,0,14.5-6.85,32.39,32.39,0,0,0,5-9.74l3.08-8.52c3.16-8.76,6.42-17.82,9.82-26.56.49-1.24,1-2.54,1.64-3.92a63,63,0,0,0,4.81-14.51c4.38.66,8.84,1.4,13.17,2.12,12.08,2,24.58,4.09,37.33,4.78,14.8.79,28.41,1.18,41.61,1.18a536.58,536.58,0,0,0,66-3.81c2-.25,4.12-.36,6.41-.48a89.41,89.41,0,0,0,11.63-1.14l4.78-.86c19.22-3.47,39.09-7,58.49-13.79,3.61-1.26,7.23-2.42,11.07-3.65,12.44-4,25.21-8.09,37.19-15.29q1.85,5.76,3.67,11.52c4.31,13.51,8.76,27.47,13.4,41.19.83,2.46,1.47,4.56,2,6.42,1.17,3.84,2.09,6.87,3.78,9.7a17.58,17.58,0,0,0,15.42,8.79c4.07,0,7.89-1.18,13.66-3,1.76-.54,3.75-1.15,6-1.82,16.15-4.75,32.26-10.12,47.85-15.3,21.93-7.31,44.6-14.86,67.18-20.59,4.54-1.16,14-3.56,18.83-11.83,4.51-7.7,2.81-16.06.87-23.29-.18-.67-.36-1.53-.54-2.45a41.7,41.7,0,0,0-2.46-8.56c-7.28-16.9-14.74-34-21.95-50.6q-6.26-14.39-12.51-28.78c-.43-1-.87-2-1.3-3-2.25-5.14-4.37-10-6.06-14.88a5.26,5.26,0,0,1,.4-.48c15.4-16.82,30.62-36.46,46.53-60.06a316.45,316.45,0,0,0,31.88-59.24c1.68-4.18,3.25-8.39,4.77-12.46,2.86-7.67,5.57-14.91,8.85-21.78,14.62-30.65,23.55-63.78,27.29-101.27.22-2.12.43-4.25.65-6.37,1.87-18.23,3.8-37.06,2.19-55.19.54-20.48-1.18-39.14-2.85-57.2-1.16-12.56-2.63-26-5.53-39-6.85-30.9-17.79-71-41.7-106.75-3.56-5.33-7-11-10.43-16.41-7.4-11.92-15-24.25-24.66-35.69-4.32-5.15-8.84-10-13.2-14.74-4.58-5-8.9-9.62-13-14.51a393.82,393.82,0,0,0-58.32-56.89c-3.66-2.91-7.38-6-11-8.91-11.48-9.43-23.36-19.18-37-27.26-2.78-1.64-5.56-3.14-8.25-4.59-5.25-2.83-10.22-5.5-13.94-8.67-14.73-12.59-31.09-14.21-43.7-14.21h-.83c-7.07,0-14.26-1.38-22.89-3.45-3.63-.87-7.53-1.77-11.49-2.49-12.55-2.26-25.29-4.41-37.62-6.49q-9.84-1.65-19.67-3.33c-17-2.92-34.25-7.26-51-11.47-7.08-1.78-14.4-3.62-21.66-5.35-3-.72-6.09-1.58-9.33-2.49-7.34-2.06-14.93-4.2-23.16-5-8.75-.83-18.92-1.72-29-1.72Z"/><path class="cls-1" d="M1349.79,1876c3,0,5.13,1.62,6.37,5,4.2,11.29,8.45,22.57,12,34.06,1,3.23-.18,7.16-.35,10.51.88,3.82,2.23,7.5-.16,10.87a24.12,24.12,0,0,1-12.43,9.1c-27.78,9.4-55.12,20-83.18,28.63-27.48,8.5-54.32,19.05-81.52,28.47-5.15,1.78-10.21,4.61-15.71,4.61a15.5,15.5,0,0,1-6.81-1.58,1.93,1.93,0,0,0-.85-.17c-1.44,0-3.49,1.07-4.91,1.9a70.48,70.48,0,0,0-10.43,7,30.62,30.62,0,0,1-20.89,7.56,52.12,52.12,0,0,1-8.38-.74c-6.83-1.12-12-3.15-14.7-9.8-.86-2.09-2.22-4.35-4.54-4.35a4.16,4.16,0,0,0-1.21.19,10.7,10.7,0,0,1-3.11.51c-4,0-6-3.06-7.45-7-5.08-13.86-3.7-26.69,6.47-38,9.43-10.49,21.72-16.31,34.74-20.58,13.92-4.56,28.06-8.47,42.14-12.57,10-2.92,20.18-5.55,30.22-8.53,22.58-6.7,45.21-13.27,67.66-20.38,21-6.64,41.71-13.94,62.57-20.89,4-1.33,8-2.61,12.05-3.55a10.93,10.93,0,0,1,2.37-.29m0-14a24.64,24.64,0,0,0-5.51.65c-4.86,1.12-9.43,2.6-13.34,3.91-7.17,2.39-14.44,4.86-21.46,7.24-13.4,4.55-27.26,9.26-40.9,13.58-18,5.71-36.54,11.18-54.44,16.47l-13,3.84c-5.31,1.57-10.81,3.09-16.12,4.56-4.59,1.27-9.34,2.59-14,4l-9.28,2.68c-10.92,3.14-22.22,6.39-33.31,10-12.38,4.06-28.21,10.52-40.79,24.52-13.16,14.64-16.35,32.69-9.21,52.18,4.7,12.83,13.43,15.69,19.09,16.08,6.9,10.73,18.2,12.58,22.81,13.33a65.23,65.23,0,0,0,10.64.92,44.78,44.78,0,0,0,30-10.94,50,50,0,0,1,6.84-4.65,29.18,29.18,0,0,0,7,.86c6.75,0,12.36-2.25,16.86-4.06,1.23-.5,2.39-1,3.43-1.32,9.74-3.38,19.55-6.94,29-10.38,17-6.17,34.62-12.56,52-17.94,17.64-5.45,35.14-11.69,52.07-17.72,10.31-3.68,21-7.48,31.47-11a38.17,38.17,0,0,0,19.35-14.25c5.4-7.61,4-15.31,2.92-19.93l.06-.38c.44-3.24,1.12-8.14-.51-13.36-3.5-11.18-7.6-22.18-11.56-32.81l-.73-2c-3.28-8.81-10.57-14.07-19.49-14.07Z"/><path class="cls-1" d="M604.35,1882.35a51.07,51.07,0,0,1,19.81,4,24.39,24.39,0,0,0,7.52,2.08c13.8.82,26.51,5.88,39.52,9.78,23.55,7,46.66,15.56,71,20,10.24,1.85,20.06,5.95,30.11,8.89,18.57,5.44,37.18,10.78,55.76,16.17,1,.3,2,.74,2.94,1.12,5.41,2.12,6.66,4.33,4.93,9.55-2.14,6.46-4.66,12.79-6.77,19.26-3.89,11.93-7.6,23.92-11.39,35.87-1.38,4.35-3.23,6.12-6.71,6.12a15.44,15.44,0,0,1-2.48-.24c-9.29-1.58-16.72-5.85-21-15.67-3.77,1.56-5.86,2.08-7.55,3.19-3.34,2.19-6.44,3.55-9.5,3.55s-6.34-1.49-9.66-5.06-9.26-4.36-14.41-5.62c-20.31-5-40.63-10-60.75-15.72-19.12-5.43-38-11.79-57-17.64-11-3.38-22-6.51-33-9.86a55.64,55.64,0,0,1-24-14.28,32.41,32.41,0,0,1-8.29-13.19c-5.55-18.36,0-30.6,17.9-37.59a63.34,63.34,0,0,1,23-4.67m0-14a77.54,77.54,0,0,0-28.13,5.63c-12.29,4.81-20.81,12.08-25.29,21.61-4.41,9.35-4.71,20.48-.91,33.07a45.79,45.79,0,0,0,11.68,18.93,69.57,69.57,0,0,0,30,17.88c5.18,1.58,10.43,3.13,15.5,4.62,5.75,1.69,11.69,3.45,17.47,5.23,6.65,2,13.43,4.2,20,6.29,12.15,3.87,24.71,7.87,37.29,11.44,19.57,5.56,38.51,10.26,61.23,15.84l2.74.64a40.52,40.52,0,0,1,5.21,1.4c5.77,6,12.31,9,19.46,9a27.85,27.85,0,0,0,12.2-3c5.91,6.14,13.78,10.06,23.51,11.71a28.78,28.78,0,0,0,4.82.44c5.61,0,15.68-2.07,20.06-15.88q1.83-5.77,3.64-11.55c2.5-8,5.09-16.19,7.71-24.22,1-3.15,2.16-6.28,3.36-9.59,1.13-3.11,2.3-6.32,3.39-9.6,4.07-12.28-.7-22.12-13.1-27l-.61-.25a34.28,34.28,0,0,0-3.55-1.28l-20.55-6c-11.54-3.34-23.47-6.78-35.18-10.21-3.17-.93-6.34-2-9.71-3.12a156.64,156.64,0,0,0-21.83-6.12c-17.08-3.09-33.46-8.29-50.8-13.8-6.09-1.93-12.39-3.93-18.68-5.82-2.67-.79-5.31-1.64-8.1-2.54-10.82-3.46-22-7-34.6-7.8a14.18,14.18,0,0,1-3-1,65.52,65.52,0,0,0-25.17-5Z"/><path class="cls-1" d="M987.67,1903c2.52,0,3.68,1.31,5.07,4.93,6.77,17.59,13.08,35.33,16.85,53.85,1.41,6.93-.12,10-6.85,11.7-12.18,3-24.42,6-36.76,8.27-9.3,1.74-18.25,4.69-27.4,6.74-25,5.61-49.7,12.55-74.48,19.12a99.42,99.42,0,0,1-9.9,1.56c-2-.52-4.69-.79-7-1.89a12.94,12.94,0,0,0-5.8-1.46,12.3,12.3,0,0,0-1.68.12,48.37,48.37,0,0,1-5.67.53c-4.24,0-3.76-2-1.09-9.13,6.26-16.64,12.43-33.32,16.87-50.57,2.12-8.25,6.23-13.69,15.25-15.7,28.59-6.38,56.73-14.67,85.56-20.09,11.32-2.12,22.47-5.09,33.73-7.53a15.66,15.66,0,0,1,3.27-.45m0-14h0a28.81,28.81,0,0,0-6.24.77c-4.43,1-8.86,2-13.14,3-7,1.64-13.54,3.19-20.2,4.44-17.72,3.33-35.27,7.74-52.23,12-11.09,2.78-22.55,5.66-33.8,8.17-13.45,3-22.12,11.71-25.76,25.88-4.13,16-9.88,31.75-16.42,49.14-2.31,6.16-5.2,13.83-.14,21.14,2.18,3.15,6.44,6.91,14.34,6.91a56.18,56.18,0,0,0,7-.59h0a34.09,34.09,0,0,0,8.37,2.59c.46.09,1,.19,1.22.26a14.36,14.36,0,0,0,3.45.43,13.66,13.66,0,0,0,2.12-.16c1-.16,2-.29,3.13-.42a60.18,60.18,0,0,0,8.24-1.45L884,2016.8c18.87-5.07,38.39-10.32,57.66-14.64,4.15-.92,8.19-2,12.09-3.06,5.13-1.37,10-2.67,14.82-3.58,13.23-2.47,26.43-5.66,37.59-8.45,10.81-2.7,14.16-8.62,15.26-10.56,3.61-6.37,2.82-13,1.91-17.51-4-19.78-10.79-38.64-17.5-56.09a24.51,24.51,0,0,0-5.26-8.67,17.73,17.73,0,0,0-12.88-5.23Z"/><path class="cls-1" d="M1163.32,1845.23c2.43,0,4.06,1.7,5.36,5.33,2.11,5.89,3.43,12,5.44,18,4,11.87,8.28,23.64,12.35,35.48.85,2.45,1.28,5,2,8-6.09,4.21-11.87,5.36-17.38,6.45-17.51,3.47-34.19,9.59-51,15.28a32.79,32.79,0,0,1-10.73,1.85,36.88,36.88,0,0,1-9.12-1.22c-10.6-2.71-20.75-7.29-31.91-7.9a5.82,5.82,0,0,1-5.19-7.85c4.18-12.35,8-24.81,12.18-37.19,1.59-4.78,4.79-8,10-8.83,14.54-2.35,27.71-9.16,41.89-12.82,11.16-2.87,21.44-8.31,31.79-13.36a10.07,10.07,0,0,1,4.26-1.23m0-14h0a23.44,23.44,0,0,0-10.4,2.65l-3.84,1.89c-8.69,4.28-16.9,8.33-25.3,10.5-6.53,1.68-12.66,3.89-18.58,6-7.64,2.75-14.85,5.36-22.06,6.52-10.07,1.62-17.75,8.27-21.07,18.22-1.9,5.7-3.77,11.49-5.58,17.09-2.13,6.59-4.34,13.41-6.58,20a19.79,19.79,0,0,0,2.26,17.58,20,20,0,0,0,15.43,8.73c5.83.32,11.93,2.25,18.4,4.29,3.46,1.1,7,2.23,10.8,3.19a50.29,50.29,0,0,0,12.59,1.66,46.65,46.65,0,0,0,15.23-2.59l6.89-2.36c14.46-5,28.11-9.63,42.32-12.44,6-1.18,14.11-2.79,22.61-8.67a14,14,0,0,0,5.64-14.86c-.21-.88-.4-1.72-.58-2.53a60.1,60.1,0,0,0-1.79-6.73c-1.78-5.17-3.62-10.4-5.4-15.45-2.3-6.54-4.69-13.31-6.93-20-.81-2.39-1.52-4.94-2.28-7.63-.95-3.42-1.94-7-3.24-10.58a24.29,24.29,0,0,0-5.51-9.18,18.26,18.26,0,0,0-13-5.43Z"/><path class="cls-1" d="M1021.17,1926.76a21.16,21.16,0,0,1,6,1.13c16.62,4.76,33,10.41,50.25,12.78a35.46,35.46,0,0,1,16,6.09c1.3,4-2.13,5.67-3.93,8-10.15,12.93-16.38,26.81-12,43.76.74,2.89-.79,5-3.08,5a4.18,4.18,0,0,1-1-.11c-20.91-5-42.47-7-63.08-13.35a26.76,26.76,0,0,1-4.25-1.87c-.34-.18-.47-.81-.63-1.26a1.75,1.75,0,0,1,1.23-2.54c4-1.16,8.11-2,12-3.42,5.83-2.09,7.63-4.75,6.41-10.79-2.78-13.85-4.7-27.91-10-41.82a13.3,13.3,0,0,1,6.09-1.55m0-14h0a27.35,27.35,0,0,0-12.37,3,14,14,0,0,0-6.8,17.51c3.76,9.83,5.66,20,7.67,30.7.3,1.57.6,3.17.91,4.78-1,.29-2.1.57-3.2.85-1.49.39-3,.8-4.62,1.26a15.74,15.74,0,0,0-9.77,7.92,15.93,15.93,0,0,0-.82,12.55,14.94,14.94,0,0,0,7.45,9.2,38.92,38.92,0,0,0,6.54,2.81c13.06,4,26.26,6.4,39,8.66,8.66,1.54,16.84,3,25,4.93a17.77,17.77,0,0,0,4.22.5,17.06,17.06,0,0,0,13.58-6.61A18.24,18.24,0,0,0,1091,1995c-2.63-10.28.16-19.7,9.35-31.46l.4-.39a24,24,0,0,0,4.89-6.26,18.49,18.49,0,0,0,1.09-14.45,14.08,14.08,0,0,0-5.08-7,49.3,49.3,0,0,0-22.31-8.64c-12.53-1.72-24.69-5.36-37.56-9.21-3.5-1-7.12-2.12-10.73-3.16l-.22-.06a33.29,33.29,0,0,0-9.67-1.61Z"/><path class="cls-1" d="M883.19,1876.21c.75,0,1.58,0,2.48.06,8.58,1.42,18.87,3.17,29.19,4.81,4.41.71,8.86,1.77,13.27,1.77h.69l2,0c11.33,0,22.53,2.42,33.86,2.42a66.47,66.47,0,0,0,8-.46,10.64,10.64,0,0,1,1.38-.08,41.84,41.84,0,0,1,7.91,1.3,3.33,3.33,0,0,1,2,2,2.74,2.74,0,0,1-2.19,3.47q-19,4.8-38,9.4-38,9.27-76.06,18.45a6.8,6.8,0,0,1-1.62.21c-2.91,0-4.57-2.18-3.54-5.29,3.45-10.41,6.89-20.82,10.77-31.07,2.14-5.63,3.92-7,9.91-7m0-14c-11.71,0-18.8,4.94-23,16-4,10.53-7.54,21.26-11,31.63a18.06,18.06,0,0,0,2.26,16.45,17.71,17.71,0,0,0,14.57,7.24,20.74,20.74,0,0,0,4.91-.6c23-5.56,47.92-11.6,76.08-18.45,11.25-2.74,24.57-6,38.14-9.44a17.23,17.23,0,0,0,10.71-8.07,16.46,16.46,0,0,0,1.46-12.94,17.16,17.16,0,0,0-12.7-11.78c-.52-.1-1-.22-1.57-.34a40.85,40.85,0,0,0-9.09-1.23,26,26,0,0,0-3.08.18,50.62,50.62,0,0,1-6.25.36,147.22,147.22,0,0,1-15.44-1.13,168.68,168.68,0,0,0-18.42-1.29l-2.34,0h-.33a46.64,46.64,0,0,1-7.45-1c-1.16-.21-2.37-.42-3.62-.62-7.37-1.18-14.89-2.43-21.51-3.54l-7.59-1.27a14.14,14.14,0,0,0-1.71-.17c-1.15,0-2.15-.07-3.06-.07Z"/><path class="cls-1" d="M959.77,14c1.94,2,4.47,2.51,7.12,2.86a500.61,500.61,0,0,1,69.24,14.37c14.62,4.06,29.6,6.86,44.49,9.87,47.79,9.66,95.5,19.81,143.48,28.42,20.61,3.69,41,8.47,61.71,11.73,15,2.36,29.39,7.54,44.49,9.86,21.77,3.33,43.38,7.67,65,11.89,14.4,2.82,28.68,6.19,43,9.32,24,5.23,47.79,11.5,72.24,14.71,14.54,1.9,28.94,4.86,43.4,7.38,3.69.64,5.63,3.24,5.26,6.67a163.2,163.2,0,0,1-3.35,21.72c-4.54,18.35-7.39,37-10.76,55.57-3.47,19.08-7,38.19-11.52,57.05-6.48,27.05-10.65,54.49-15.57,81.82-2.79,15.45-5.74,31.06-10.77,45.88-8.11,23.9-12.85,48.63-19.47,72.87-6,22.18-9.53,45.07-13.93,67.69-7,36-14.27,72-20.63,108.09q-7.35,41.78-17.11,83c-4.59,19.36-10.56,38.39-15.86,57.58-5,18.19-9.71,36.47-15,54.59-5.74,19.66-8.9,39.87-13.57,59.76-2,8.68-3.43,17.61-6.49,25.92-3.55,9.64-2.74,19.68-4.51,29.45-2.89,16-7.46,31.68-7.72,48.09-.06,3.8-2,5.88-5.18,5.88l-.63,0c-6.79-.55-13.65-1-20.3-2.32-12.84-2.64-25.51-6.05-38.31-8.86-19.4-4.27-38.86-8.32-58.3-12.41-15.9-3.34-31.79-6.8-48.08-7.57-12.65-.6-24.94-3.1-37.23-6-23-5.31-46-10.26-69.08-15.31a26,26,0,0,0-5.61-.74h-.64c-.67,0-1.35,0-2,0a55.51,55.51,0,0,1-22.38-5.11c-9.27-4.07-19.24-5.07-28.93-6.85-25.23-4.64-50.17-10.59-74.95-17-11.62-3-23.26-5.83-35-8.32A214.88,214.88,0,0,0,900,921.26c-7.77-.67-15.47-2.84-23-5-27.22-7.72-54.49-15.15-82.48-19.6a198.07,198.07,0,0,1-20-4.34c-6.95-1.87-8.27-4-6.86-11.59s3.36-15.36,5.41-22.94a246.49,246.49,0,0,0,7.84-44.88c1.21-15.17,5.18-29.84,8.61-44.63,5-21.42,8.46-43.22,14.24-64.41,6.09-22.28,11-44.79,15.07-67.44,2.8-15.48,7-30.59,10.25-45.93,1.51-7.16,2.8-14.36,4.2-21.55,5.41-27.75,10.2-55.59,14.68-83.51a682.85,682.85,0,0,1,14.78-70.75c5.92-21.76,8.93-44.18,15.74-65.62,6.2-19.52,9.79-39.6,14.51-59.43,4.12-17.3,6.61-35,10.11-52.45,1.95-9.74,4.61-19.33,6.77-29,4.77-21.47,8.7-43.14,14.34-64.37,5.22-19.69,9-39.71,15.31-59.18,4.15-12.84,5.24-26.65,7.85-40,1.31-6.68,2.9-13.29,4.48-19.91.84-3.54,2.48-6.93,1.6-10.72h6.31m0-14h-6.31a14,14,0,0,0-13.8,16.34c-.12.49-.35,1.27-.53,1.87-.28,1-.6,2.05-.89,3.27l-.3,1.24c-1.48,6.23-3,12.68-4.3,19.22-.92,4.7-1.65,9.4-2.36,13.94-1.36,8.71-2.64,16.93-5.07,24.45-4.16,12.9-7.27,26-10.27,38.61-1.67,7-3.4,14.27-5.25,21.28-3.88,14.59-7,29.45-10,43.83-1.45,6.93-3,14.1-4.5,21.09-.86,3.89-1.84,7.89-2.79,11.77-1.4,5.69-2.84,11.57-4,17.55-1.37,6.84-2.59,13.74-3.78,20.42-1.94,10.93-3.77,21.26-6.22,31.54-1.46,6.13-2.82,12.32-4.14,18.31-3.06,13.95-6,27.13-10.09,40.13-4.08,12.84-6.85,25.91-9.52,38.55-2,9.58-3.94,18.63-6.39,27.63a696.15,696.15,0,0,0-15.1,72.2c-5,30.94-9.73,58.11-14.59,83.06q-.69,3.59-1.37,7.17c-.89,4.67-1.8,9.5-2.79,14.15-1.27,6-2.74,12.2-4.17,18.18-2.17,9.12-4.42,18.55-6.16,28.16-4.36,24.07-9.2,45.74-14.79,66.24-3.63,13.3-6.39,26.84-9,39.92-1.68,8.25-3.41,16.78-5.33,25-.55,2.38-1.12,4.75-1.68,7.13-3,12.67-6.15,25.76-7.25,39.54a233.26,233.26,0,0,1-7.39,42.34c-2.6,9.6-4.35,17-5.66,24-1,5.38-1.55,11.68,2,17.68,4.25,7.12,11.75,9.13,15,10a208.56,208.56,0,0,0,21.41,4.64c27.4,4.37,53.88,11.59,80.86,19.24,7.73,2.2,16.49,4.68,25.64,5.46,7.88.68,15.49,2.21,24.63,4.15,10.26,2.17,21.19,4.77,34.39,8.17,30.21,7.8,53.62,13.1,75.9,17.19,2.12.39,4.22.74,6.25,1.08,7.12,1.19,13.84,2.3,19.59,4.83a68.79,68.79,0,0,0,28,6.29c.87,0,1.75,0,2.62-.06h0a13.66,13.66,0,0,1,2.63.41l14.94,3.27c17.72,3.87,36,7.87,54,12,12.44,2.88,25.87,5.64,39.72,6.29,14.49.69,28.77,3.69,43.89,6.88l2,.41,8,1.67c16.48,3.46,33.52,7,50.22,10.71,5.44,1.2,11,2.54,16.43,3.85,7.17,1.73,14.59,3.52,22.06,5.05a152.5,152.5,0,0,0,19.31,2.35l2.68.21c.6,0,1.19.08,1.76.08,10.94,0,19-8.27,19.18-19.66.16-10.47,2.38-21,4.73-32.07.94-4.47,1.92-9.08,2.76-13.74a124.08,124.08,0,0,0,1.44-12.33c.46-5.64.86-10.52,2.43-14.77a145.32,145.32,0,0,0,5.45-20.55c.52-2.44,1-4.74,1.54-7,1.78-7.54,3.34-15.16,4.86-22.53,2.6-12.69,5.06-24.67,8.52-36.51s6.69-23.88,9.83-35.52c1.7-6.33,3.46-12.87,5.23-19.27,1.72-6.24,3.56-12.61,5.33-18.77,3.69-12.77,7.5-26,10.65-39.3,6.5-27.38,12.31-55.58,17.28-83.81s10.57-56.77,16-84.44q2.3-11.7,4.58-23.4c1.19-6.09,2.32-12.26,3.41-18.23,3-16.09,6-32.74,10.29-48.44,2.42-8.87,4.61-17.87,6.73-26.56,3.85-15.82,7.49-30.75,12.49-45.51,5.23-15.41,8.32-31.45,11.28-47.89,1.21-6.72,2.4-13.54,3.54-20.13,3.48-20.11,7.08-40.9,11.87-60.92,4.52-18.85,8-37.33,11.68-57.8.81-4.45,1.6-9,2.36-13.3,2.39-13.71,4.87-27.88,8.22-41.41a174.58,174.58,0,0,0,3.68-23.57c1.18-10.84-5.88-20.08-16.78-22-4.17-.72-8.43-1.5-12.55-2.26-10.23-1.87-20.79-3.81-31.44-5.2-17.56-2.3-34.59-6.21-52.61-10.35-6-1.38-12.27-2.82-18.46-4.16-4.41-1-8.9-2-13.25-2.94-9.8-2.19-19.94-4.46-30.06-6.44L1391.67,88c-19.33-3.79-39.32-7.71-59.25-10.76-7-1.07-13.9-2.84-21.24-4.71S1296,68.68,1288,67.42c-11.8-1.86-23.84-4.29-35.49-6.65-8.46-1.7-17.21-3.47-25.93-5-36.32-6.52-73.17-14.06-108.82-21.36-11.25-2.3-22.89-4.69-34.35-7L1076.74,26c-12.25-2.45-24.91-5-36.86-8.3A513,513,0,0,0,968.71,3l-.37,0A14,14,0,0,0,959.77,0Z"/><path class="cls-1" d="M792.18,909.59c7.77,0,15.23,1.81,22.52,3.58,21.34,5.18,42.53,11,63.71,16.91a133.78,133.78,0,0,0,23.12,4.19c16.65,1.63,33.11,4.5,49.18,9.67,11.42,3.67,23.23,6.77,35.1,8.17,13.63,1.6,26.58,5.87,39.92,8.46,12.18,2.37,24.75,4.62,36.43,9.68a49.57,49.57,0,0,0,13.67,3.46c30.2,3.66,59.47,11.81,89.14,18,14.82,3.1,29.77,5.43,45.14,5.86,12.94.37,26.05,3.42,38.6,7,14.63,4.16,29.84,5.58,44.26,10.71,7.29,2.6,15.64,1,23.26,3.52,5,1.64,10.15,2.65,15.25,3.85,3.15.74,4.32,3.06,4.08,5.79-.71,8.23-.38,16.69-4.34,24.5a21.43,21.43,0,0,1-6.18.86,42.92,42.92,0,0,1-9.41-1.28c-12.26-2.77-24.41-6-36.61-9.08-3-.76-6.06-1.91-9.15-2.23-21.95-2.28-43.45-7-64.65-12.81-19.35-5.28-39.18-6.65-58.84-9.52-13.42-2-26.72-4.8-40.08-7.18-11.3-2-22.27-5.71-33.91-6.16-5.19-.19-10.35-1.56-15.49-2.58-34.42-6.8-68.12-16.46-101.89-25.82-17.63-4.89-35.22-9.65-52.39-16.31-13.52-5.24-28.26-7.87-42.7-10.14-15.57-2.44-30.84-5.84-46.08-9.69-10.57-2.67-21.71-3.16-33.3-8.71,2.15-7.93,4.06-14.95,6.07-22.36a47.65,47.65,0,0,1,5.57-.32m0-14a59.45,59.45,0,0,0-7.25.43,14,14,0,0,0-11.83,10.22L767,928.6a14,14,0,0,0,7.46,16.3c9.63,4.61,18.68,6.28,26.66,7.75,3.28.61,6.38,1.18,9.26,1.91,17.93,4.53,33,7.69,47.34,9.94,13.33,2.1,27.38,4.55,39.81,9.37,16.82,6.52,34,11.28,50.61,15.88l3.09.86,9.24,2.56c30.42,8.47,61.88,17.22,93.69,23.51,1.11.21,2.21.45,3.32.69a83.75,83.75,0,0,0,14.35,2.14c6.35.24,12.89,1.76,19.83,3.36,3.91.91,8,1.84,12.15,2.59,4.49.8,9.09,1.68,13.54,2.53,8.78,1.67,17.85,3.4,27,4.73,5.6.82,11.23,1.52,16.68,2.19,14.13,1.76,27.48,3.42,40.49,7,25.35,6.92,46.61,11.13,66.89,13.23a28,28,0,0,1,3.79,1c1,.29,2.18.63,3.41.94q5.2,1.3,10.41,2.65c8.64,2.2,17.58,4.49,26.52,6.51a56.62,56.62,0,0,0,12.49,1.62,35.79,35.79,0,0,0,10.16-1.43,14,14,0,0,0,8.51-7.1c4.49-8.86,5-17.88,5.49-25.13.1-1.58.19-3.06.31-4.5a19.05,19.05,0,0,0-14.82-20.62l-3.72-.85c-3.7-.83-7.19-1.62-10.35-2.67a57.23,57.23,0,0,0-15.15-2.39c-3.08-.19-6-.37-7.8-1-9.26-3.29-18.48-5.15-27.39-6.94-6.21-1.25-12.07-2.43-17.75-4-11.49-3.26-26.66-7.06-42-7.5-12.63-.36-26.19-2.13-42.68-5.57-8.86-1.85-17.91-3.93-26.65-5.94-20.6-4.73-41.89-9.62-63.67-12.26a35.76,35.76,0,0,1-9.78-2.4c-12.37-5.37-24.93-7.8-37.08-10.15l-2.25-.43c-4.79-.93-9.57-2.1-14.62-3.34a213.61,213.61,0,0,0-26.33-5.29c-9.51-1.11-19.82-3.53-32.45-7.59-15.59-5-32.64-8.37-52.11-10.27a120.26,120.26,0,0,1-20.74-3.75c-19.65-5.45-41.92-11.63-64.15-17l-.09,0c-7.65-1.86-16.31-4-25.73-4Z"/><path class="cls-1" d="M1017.8,116.07a10.45,10.45,0,0,1,1.87.18c20.57,3.91,41.14,7.73,61.67,11.83,31.81,6.41,63.58,13,95.36,19.52,22,4.53,44.06,9.13,66.14,13.6,12.32,2.47,24.64,5,37.06,6.94,7.82,1.21,15.18,3.74,22.71,6,13.5,4,27.4,6.93,41.23,9.72,19.52,3.95,39.24,7,58.72,11.14,15.38,3.22,31.18,3.68,46.46,7.85,13.84,3.82,14,3.32,10.88,16.43-8,33.06-15.61,66.24-24.09,99.2-4.07,15.71-9,31.18-11.89,47.19-.62,3.35-1.91,4.58-4.63,4.58a14.74,14.74,0,0,1-2.07-.18,13.68,13.68,0,0,1-3.09-.49c-15.91-6.25-33-5.49-49.49-8.55-8.92-1.66-17.8-3.87-27-3.87-1.35,0-2.72.05-4.09.16l-.51,0a12.43,12.43,0,0,1-4.09-.91c-22.64-8.38-47-9.86-69.89-17.28a23.37,23.37,0,0,0-7.2-.92c-2.82,0-5.7.24-8.47.26h-2c-6.23,0-12.43-.36-18.19-2.67-9.89-4-20.27-5.13-30.59-6.8-7.26-1.18-14.69-2-21.58-4.31-22.51-7.52-45.71-11.27-69.1-14.16a126.89,126.89,0,0,1-25.8-6.44,353.19,353.19,0,0,0-37.88-10.28c-17.91-4-35.72-8.25-54.15-8.91-1.52,0-3-.92-4.28-1.38-1.41-4.53.53-8.54,1.42-12.52,5.55-24.51,8.25-49.55,15.41-73.79,3.78-12.92,4.17-26.85,7.52-40.09,3.06-12.16,5.62-24.41,8.41-36.64.73-3.18,2.62-4.42,5.2-4.42m0-14h0c-9.34,0-16.74,6-18.85,15.32-.88,3.88-1.76,7.82-2.61,11.63-1.81,8.14-3.68,16.56-5.73,24.7A197.59,197.59,0,0,0,987,173.81a144.44,144.44,0,0,1-3.72,19.47c-4.57,15.49-7.39,31.2-10.12,46.39-1.67,9.34-3.41,19-5.51,28.25-.12.57-.32,1.28-.54,2-1.09,3.84-2.91,10.28-.58,17.75a14,14,0,0,0,8.64,9l.36.16a21.77,21.77,0,0,0,8.2,2c15.94.57,31.57,4.08,48.11,7.8l3.42.77c13.7,3.1,25.15,6,36.36,9.85a139.4,139.4,0,0,0,28.63,7.1c20.32,2.51,44.07,6.08,66.41,13.55,6.67,2.23,13.23,3.23,19.57,4.19,1.41.22,2.81.43,4.2.66l5.11.8c8.07,1.24,15.69,2.41,22.47,5.16,8.09,3.25,16,3.69,23.45,3.69h2.15c1.56,0,3.07-.08,4.54-.14s2.65-.12,3.8-.12a10.32,10.32,0,0,1,2.91.25c11.36,3.68,22.86,6,34,8.16,12.46,2.47,24.22,4.81,35.34,8.92l.08,0a25.53,25.53,0,0,0,8.87,1.75c.55,0,1.1,0,1.64-.07,1-.07,2-.11,3-.11,6,0,12.27,1.25,19,2.58,1.82.36,3.63.72,5.46,1.06,6.36,1.18,12.63,1.82,18.7,2.44,10.09,1,19.63,2,28.11,5.33a19.92,19.92,0,0,0,6.11,1.34l.21,0a28.46,28.46,0,0,0,4.07.32c7.46,0,16.22-4.22,18.4-16.05,2-10.69,4.83-21.12,7.87-32.15,1.27-4.58,2.58-9.32,3.81-14,6-23.17,11.57-46.75,17-69.55,2.33-9.8,4.75-19.93,7.15-29.88,1.93-8,3.6-15-.47-21.86s-10.9-8.78-18.81-10.94l-1.49-.41c-9.71-2.65-19.26-3.91-28.51-5.12-6.56-.86-12.76-1.68-18.8-2.94-10.88-2.31-21.94-4.31-32.64-6.25-8.61-1.55-17.52-3.16-26.17-4.91-13.1-2.64-27-5.55-40-9.42l-4.21-1.28a144.11,144.11,0,0,0-20.33-5.12c-10.9-1.7-22.06-3.94-32.86-6.1l-3.61-.72c-14.66-3-29.58-6.06-44-9l-22-4.55-31.07-6.38c-21.08-4.34-42.87-8.83-64.34-13.15-15.57-3.12-31.36-6.1-46.63-9l-15.2-2.88a24.39,24.39,0,0,0-4.48-.43Z"/><path class="cls-2" d="M1154.91,411.47c-15.75-1.45-30.92-5.8-46.22-9.52-3.56-.87-7.19-1.56-10.82-2.14a468.5,468.5,0,0,1-68.74-16.9c-3.47-1.11-7-2.59-10.57-2.81-12.62-.76-24.92-3.46-37.31-5.67-6.7-1.2-13.35-2.72-20.08-3.73-5.92-.89-8.79,1-10.11,6.91q-6.54,29.19-12.7,58.45c-3.16,14.87-5.7,29.87-9.24,44.65-5.84,24.41-12.86,48.49-16.32,73.51-4.24,30.55-12.72,60.35-17,91-3.35,23.81-9.84,47.16-13.93,70.89-3.49,20.23-9.11,39.83-14.81,59.47a101.59,101.59,0,0,0-3.57,15.32c-1.62,12.88-5.83,25.48-5,39.81,16,3.63,31.71,7.53,47.61,10.74,12.3,2.48,24.92,3.51,37.16,6.24,18.45,4.1,36.89,8.05,55.64,10.5,14.55,1.91,29.16,4.16,42.94,9.09,8.63,3.09,17.23,4.31,26.11,4.87l29.43,6.47c5.17.7,10.43.15,15.43,2.49,6.23,2.91,13,3.94,19.83,4.66a240.64,240.64,0,0,1,24.9,3.82c41,8.71,82,17.65,123.07,26.47q8.42,1.8,16.91,3.19c4.18.68,7.77,0,8.65-6.42.08-.52.18-1,.29-1.55,4.51-22.08,9.15-44.13,13.48-66.25,2.53-12.87,3.94-26,6.94-38.74,11.55-49,21.73-98.31,29.47-148.09,1.21-7.78,3.39-15.43,4.18-23.23,1.69-16.79,5.39-33.18,9.78-49.35,5.37-19.81,8.63-40,11.65-60.17,1.56-10.39,3.16-20.72,6-30.88s5.06-20.29,5.08-31.48c-9.09-2.95-18-6.09-27-8.64-5.51-1.56-11.31-2.08-16.94-3.26-26.69-5.59-53.26-11.85-80.09-16.69-21.7-3.91-43.15-8.66-64.52-13.94a165.8,165.8,0,0,0-21.75-3.47Z"/><path class="cls-2" d="M1090.72,869.77c1.7-11.9,3.56-23.8,6-35.57,4.32-21.06,8.73-42.08,12.33-63.3,2.19-12.86,5.43-25.59,7.81-38.47,7.07-38.16,12.36-76.65,22.06-114.31,3.27-12.7,4.78-25.74,6.41-38.78,2.28-18.16,6.84-36,9.46-54.14,5-34.34,16.28-67.36,20.72-101.79"/><path class="cls-3" d="M1073.34,225.27c27.45-14.45,83.8-34.68,83.8-34.68"/><path class="cls-3" d="M1082,249.11c54.9-25.29,123.54-50.57,123.54-50.57"/><path class="cls-3" d="M1110.91,262.11c61.4-23.84,137.26-49.85,137.26-49.85"/><path class="cls-3" d="M1150.64,276.56c65-27.45,127.88-52,127.88-52"/><path class="cls-3" d="M1203.38,280.9c61.41-24.57,120.65-47,120.65-47"/><path class="cls-3" d="M1238.78,289.57c50.57-19.51,106.2-40.46,106.2-40.46"/><path class="cls-3" d="M1288.63,300.4a507.88,507.88,0,0,0,58.52-20.95"/><path class="cls-3" d="M1083.45,210.1c29.62,36.12,65,67.19,65,67.19"/><path class="cls-3" d="M1108.74,192c38.29,49.12,91.75,94.64,91.75,94.64"/><path class="cls-3" d="M1155,186.26c52,60.68,105.47,111.25,105.47,111.25"/><path class="cls-3" d="M1217.11,202.15c35.4,40.46,94.64,106.2,94.64,106.2"/><path class="cls-3" d="M1267,211.54c39.73,43.35,76.58,85.25,76.58,85.25"/><path class="cls-3" d="M1314.64,223.1c23.12,23.84,44.79,48.41,44.79,48.41"/><path class="cls-2" d="M959.53,1273.71c314.32-160.61,324.68,336.77-1.72,319.5"/></g></g></svg>