<svg xmlns="http://www.w3.org/2000/svg" viewBox="0 0 829.75 679.5"><defs><style>.cls-1{fill:#010101;}.cls-2,.cls-3,.cls-4,.cls-5{fill:none;}.cls-2,.cls-5{stroke:#010101;stroke-linejoin:round;}.cls-2,.cls-4,.cls-5{stroke-linecap:round;}.cls-2,.cls-3,.cls-4{stroke-width:14px;}.cls-3,.cls-4{stroke:#130c08;stroke-miterlimit:10;}.cls-5{stroke-width:10.98px;}</style></defs><g id="Layer_2" data-name="Layer 2"><g id="Layer_1-2" data-name="Layer 1"><path class="cls-1" d="M629.27,19.63a59.55,59.55,0,0,1,32.07,8.87c11,6.77,19.92,14.52,26,26,3.88,7.35,7.11,14.62,6.76,23.1a25.53,25.53,0,0,0,.43,5.72,6.74,6.74,0,0,0,6.6,5.17,5.7,5.7,0,0,0,1-.08c1.86-.29,3.62-1.28,5.49-1.57,7.6-1.18,15.06-2.55,22.75-2.55a55.57,55.57,0,0,1,9.94.86c25.37,4.55,41.45,18.58,48.39,43.13,5.36,19,5.94,37.78-3.76,55.81a14.1,14.1,0,0,0-.63,1.3c-2.8,7.06-2.41,8.9,4.2,12.92a56.68,56.68,0,0,1,20.61,21.54,30,30,0,0,1,2.71,5c7.1,22.31,6.1,52.38-15.28,73.51-3.83,3.79-8.53,6.18-13.3,8.42-3.9,1.83-8,3.19-11.94,5-4.32,2-5.13,4.42-2.59,9.1,4,7.35,5.21,15.29,5.84,23.44.89,11.61-1.16,22.95-3.78,34.13-4.45,19-29.76,47.46-60.4,48.13-2.51.06-5,.12-7.52.12-9.47,0-18.79-.81-27.61-5.51a5.92,5.92,0,0,0-2.76-.79c-2.19,0-3.87,1.68-4.88,4.63-1.55,4.53-2.94,9.12-4.22,13.73-5.62,20.31-19.6,32.33-38.82,39.15a101.2,101.2,0,0,1-34.07,6,106.05,106.05,0,0,1-26.75-3.52c-3.24-.85-6.47-1.76-9.74-2.45-15.32-3.22-27.22-11-35.25-24.8-4.36-7.49-6.67-10.22-11.22-10.22-2.36,0-5.33.74-9.51,1.94-5.52,1.58-10.88,3.51-16.69,4.22a66.18,66.18,0,0,1-8.13.5c-15.31,0-29.27-5.28-42.78-12.62-2.94-1.6-5.65-3.63-8.5-5.4-22.68-14.12-28.84-33.82-23.67-59.49,1.43-7.13,4.83-13.51,7.84-20,2-4.44.7-7.33-3.9-8.75-4.12-1.27-8.39-2.07-12.46-3.44-8.68-2.94-17-6.82-23.86-12.94-17.75-15.77-25.5-36.1-23.15-59.23,1.87-18.5,12.25-33,28-43.22,2-1.3,4.32-2.11,6.36-3.36,3.27-2,4.12-5.48,1.84-8.6a45.61,45.61,0,0,0-6.71-7.44c-5-4.33-7.38-9.94-8.86-16.09-7.19-29.77,2.17-53.7,25.24-74.36,11.48-10.28,24.9-13.72,39.62-14.22h.95c1.41,0,2.83.08,4.23.08.68,0,1.35,0,2-.08,7-.61,9.85-4.35,8.88-11.53-2.7-20.1,4-36.72,18.82-50.19a25.9,25.9,0,0,1,8.38-5.42c10.7-3.76,21.32-8.21,30.71-8.21a26,26,0,0,1,3.76.26c7.47.42,11.84.3,16.09,1,12.87,2.08,25.49,4.87,34.52,15.6a41.73,41.73,0,0,0,6.36,5.8,4.74,4.74,0,0,0,3,1.07,6.88,6.88,0,0,0,3.7-1.28,8.29,8.29,0,0,0,2.08-2C582.25,31.05,597.49,24,614.23,21a85.67,85.67,0,0,1,15-1.41m0-14a100.35,100.35,0,0,0-17.49,1.63c-19.33,3.43-34.84,11.37-46.24,23.61C553.62,18.06,538,14.6,524.22,12.38a87,87,0,0,0-11-.85c-1.77-.06-3.76-.14-6-.26a40.29,40.29,0,0,0-5.08-.31c-10.42,0-20.68,3.71-30.6,7.3-1.58.57-3.17,1.15-4.76,1.7a39,39,0,0,0-13.14,8.26,73.07,73.07,0,0,0-19.66,28,68.38,68.38,0,0,0-4.09,30.1h-.79c-.48,0-.95,0-1.43,0-20.3.69-35.71,6.34-48.48,17.79-27.7,24.81-37.63,54.44-29.51,88.07,2.79,11.55,7.56,17.87,11.48,21.71C342.1,227,330.91,245,328.76,266.19c-2.83,27.86,6.78,52.45,27.78,71.11C364,344,373.14,349,385.22,353c1.47.5,2.9.92,4.29,1.3a70.56,70.56,0,0,0-5,14.91c-3.21,16-2.55,29.64,2,41.77,4.88,13,14.29,23.84,28,32.36.88.54,1.8,1.16,2.78,1.82,1.89,1.26,4,2.69,6.43,4,18,9.77,33.69,14.32,49.47,14.32a81.09,81.09,0,0,0,9.84-.6,89.43,89.43,0,0,0,15.32-3.62c1.17-.35,2.34-.71,3.52-1s2.27-.64,3.13-.86c.43.68,1,1.57,1.64,2.72,9.72,16.72,24.68,27.3,44.47,31.46,2.12.44,4.34,1,6.68,1.66l2.41.64a120.46,120.46,0,0,0,30.28,4,115.47,115.47,0,0,0,38.75-6.78c25.15-8.93,41.18-25.28,47.63-48.61q.7-2.54,1.42-4.93c8.61,2.68,17.07,3.14,24.56,3.14,2.6,0,5.18-.06,7.68-.12h.15c17.07-.37,34.49-7.74,49-20.74,12.47-11.14,21.7-25.42,24.69-38.2,2.75-11.79,5.16-24.6,4.1-38.4a81,81,0,0,0-4.19-21.67c1.58-.64,3.21-1.32,4.88-2.1,5.46-2.57,11.74-5.76,17.18-11.14a78.53,78.53,0,0,0,22.31-44.09,96,96,0,0,0-3.53-43.62,29.44,29.44,0,0,0-3.2-6.58c-.24-.38-.46-.74-.58-1a70.75,70.75,0,0,0-22.79-25c9.22-18.73,10.38-39.59,3.57-63.68-4.18-14.79-11.4-26.81-21.47-35.73C770.75,79.9,758,74.06,742.75,71.32a68.75,68.75,0,0,0-12.42-1.08c-7.84,0-15.09,1.16-22.1,2.27l-.3,0c-.78-9.3-4.37-17.31-8.25-24.65-6.62-12.53-16.18-22.2-31-31.33A73.94,73.94,0,0,0,629.27,5.63ZM430.42,91.35Z"/><path class="cls-2" d="M565,153.79c-7.88-5.46-18.14-6.86-26.93-2.63-8.58,4.12-14.22,10.62-16.49,20.18-1.92,8,.13,14.58,5.73,20.22,26.78,19.19,52.6-7.83,47.69-25.79A29.21,29.21,0,0,0,565,153.79Z"/><path class="cls-2" d="M592.8,221.4c9.26,3.23,17.6.12,25.45-4.74,5.83-3.62,10.35-8.87,10.07-15.93-.41-10.13-4.33-19.12-12.35-25.82a16.06,16.06,0,0,0-10.22-3.8C575.88,166.58,558.81,198.87,592.8,221.4Z"/><path class="cls-2" d="M535.32,207.68c-10.11,5.29-16.85,12.68-26.08,16.8-7.81,3.49-9,9.64-5.48,17.6A34.46,34.46,0,0,0,515.68,256a115.83,115.83,0,0,0,46.21,19.61c3.56.68,7.42.31,11.08-.12,9.6-1.13,14.94-9.1,14-18.32-4.11-13.4-14.24-53.37-18.65-60.55Z"/><path class="cls-1" d="M455.4,190.21h0m-15.75,52.6c.19,1.35.39,2.71.61,4.09a63.14,63.14,0,0,0,4.89,16.52c-3.35-.26-6.79-.48-10.35-.48a71.37,71.37,0,0,0-8.48.48l2.06-3.19c3.69-5.73,7.47-11.59,11.27-17.42M679,326.28h0m-54.43,10.06-.67,1.32a163.66,163.66,0,0,1-9.41,15.83c-1.31,2-2.75,4-4.31,6-2.95-4.37-5.77-8.81-8.28-12.79-1-1.58-2-3.44-3-5.42-.61-1.14-1.23-2.31-1.89-3.51l5,.21.63,0,.62,0c7.24-.32,14.33-.86,21.37-1.64m-177.12-155c-1.74,0-3.36.48-4.21,2a18.82,18.82,0,0,0-2.44,6.69A194.64,194.64,0,0,0,439,210a26.63,26.63,0,0,1-4.31,14.86c-8.47,12.75-16.7,25.67-25,38.53-1.56,2.4-3.4,4.68-4.57,7.26a4.21,4.21,0,0,0,2.23,5.95,21.82,21.82,0,0,0,9.69,2.12,35.35,35.35,0,0,0,7.22-.81,51.4,51.4,0,0,1,10.57-1c4.08,0,8.17.35,12.3.68,5.64.45,9.86,2.08,13.71,6.38a130.13,130.13,0,0,0,41.27,30.63c7.34,3.52,14.32,8,22.2,10,11.57,3,23.44,4.83,35,7.86,6.49,1.71,14.49-1.12,19.33,3.58s7.59,12,11.41,18.09,7.7,12.14,11.86,18c2.83,4,5.1,6,7.51,6s4.83-1.87,8.1-5.59a100.87,100.87,0,0,0,8.69-11.4,178,178,0,0,0,10.21-17.22c4.45-8.92,9.46-16.17,21.05-16.41,5-.1,10-2.91,15-4.69a31.09,31.09,0,0,0,6.33-3.2c1.59-1,2.91-2.65,2.49-4.73s-1.91-2.52-3.44-2.52a6.62,6.62,0,0,0-1.1.09c-4.72.77-9.4,1.8-14.05,2.93A311.79,311.79,0,0,1,602.54,324c-15.31-.69-32.56-.85-49.26-5.94a103.8,103.8,0,0,0-14-3.4c-24.08-3.83-43.72-16.35-62.11-31.32a56.15,56.15,0,0,1-8.15-8.09c-7.29-9-13.11-18.65-15-30.51-2.67-17.14-3.59-34.23-1.61-51.48a34,34,0,0,0-.2-8.55c-.28-2-1.87-3.16-4-3.33-.27,0-.55,0-.82,0Z"/><path class="cls-3" d="M319.75,175.87c24.43,90.84-129.13,123.63-128.51,10.07a7.44,7.44,0,0,1,6.9-7.36l113.92-8.14A7.42,7.42,0,0,1,319.75,175.87Z"/><path class="cls-4" d="M259.94,258.29c2.41,38.6-.71,38.8,1.71,77.4.05.91,2.38,2.45,3.28,2.49,33,1.36,47.52,10.71,51.79,16,.89,1.1-1.26,4.42-2.68,4.55-44.62,4.2-44.47,5.72-89.09,9.92-1.55.14-3.31-4.07-2.37-5.31,15.75-21,14.37-19.72,35.92-24.9"/><path class="cls-1" d="M377.82,95.64c4.6,0,9.19.39,13.81.7a3.14,3.14,0,0,1,2.25,1.5c.76,1.53-.48,2.34-1.62,3.24-4.86,3.85-10,7.33-14.81,11.36-9.1,7.6-15,17.39-20.51,27.45-7.18,13.16-7.69,27.49-5.77,42,1.5,11.17,5.5,21.2,13.31,29.64,2.67,2.89,2.22,5.38-1.15,6.88-14.38,6.31-21.08,19.11-27.15,32.23-5.59,12.11-6.16,24.79-3.54,37.94,5.49,27.49,20.81,46.83,46.59,57.89,2.64,1.14,5.37,2.07,8,3.21,2.13.93,4.71,1.08,6.15,3.34,1.09,3.63-1.26,6.46-2.49,9.46a63.72,63.72,0,0,0-.42,49,27.41,27.41,0,0,1,1.59,5.5,2.49,2.49,0,0,1-2.1,3.12c-14.33,1.2-28.69,2.44-43.05,3.28-2.06.13-4.14.17-6.22.17-3.56,0-7.14-.12-10.71-.12-1.09,0-2.17,0-3.25,0h-.55c-4.08,0-6.83-1.35-7.92-5.81a27.9,27.9,0,0,0-8.8-14.51,22.61,22.61,0,0,0-26.5-3.72c-7.09,3.6-13.1,8.56-14.75,16.67-1.17,5.86-4.47,6.67-9.7,7.84-14.06,3.15-28.39,4.53-42.54,6.88A85.59,85.59,0,0,1,202.44,432c-.74,0-1.48,0-2.22,0-7.62-.28-15.23-.62-22.83-.62a163.34,163.34,0,0,0-21.74,1.28,6,6,0,0,1-.81.06c-2.52,0-3.34-1.86-3.64-4.24a5.79,5.79,0,0,1,0-1.44c2.28-18.41-1.68-36.28-4.62-54.25-.85-5.19-.67-10.54-1.63-15.71-1.59-8.47-1.86-17.06-3.69-25.56a80.51,80.51,0,0,1-1-25.74c1.95-16.86.15-33.5-1.38-50.14-1.06-11.44-2.77-22.83.39-34.15.57-2-.27-3.64-.73-5.44-4-15.8-7.17-31.78-12.19-47.31A43.62,43.62,0,0,1,124,156.05,128.26,128.26,0,0,0,120.8,129a58.59,58.59,0,0,1-1.26-10c-.24-4.29.93-5.64,5.5-7,7.75-2.39,15.69-2.73,23.63-2.73,3.13,0,6.26.06,9.39.06h1.75c7.07,0,14.14.52,21.18.52,1.87,0,3.73,0,5.6-.13,5.16-.24,10.33-2,15.35-3.63A84.61,84.61,0,0,1,228.17,102a101.88,101.88,0,0,1,10.53.57,245.64,245.64,0,0,0,25.84,1.59A119.86,119.86,0,0,0,296,100.33a81.29,81.29,0,0,1,21.13-2.75,94.27,94.27,0,0,1,17.38,1.67,47.42,47.42,0,0,0,8.77.78c7.63,0,15.19-1.58,22.62-3.21a54.76,54.76,0,0,1,12-1.18m0-14h0a68.57,68.57,0,0,0-15,1.51C355.4,84.78,349.22,86,343.24,86a33.84,33.84,0,0,1-6.2-.54,108.15,108.15,0,0,0-20-1.91,95.62,95.62,0,0,0-24.76,3.23,106.08,106.08,0,0,1-27.79,3.33,228.76,228.76,0,0,1-24.36-1.51,115.12,115.12,0,0,0-12-.65,98.25,98.25,0,0,0-30.52,4.76l-1.41.45c-3.84,1.23-7.48,2.4-10.3,2.53-1.57.08-3.17.11-4.95.11-3.26,0-6.56-.12-10.06-.25s-7.33-.27-11.12-.27h-1.75l-4.57,0-4.82,0c-8.76,0-18.18.41-27.72,3.34-10.81,3.28-16,10.41-15.39,21.2a71.13,71.13,0,0,0,1.6,12.35A113.5,113.5,0,0,1,110,156.28,57,57,0,0,0,113,173c3.36,10.4,5.86,21,8.52,32.24,1.09,4.62,2.22,9.4,3.41,14.14.06.25.12.49.19.71-2.7,11.62-1.6,22.78-.62,32.71.14,1.35.27,2.69.39,4l.32,3.36c1.41,15.23,2.75,29.61,1.1,43.88a94.59,94.59,0,0,0,1.22,30.33c.84,3.91,1.32,8.07,1.83,12.47.47,4.1,1,8.33,1.78,12.71a58.52,58.52,0,0,1,.68,6.65c.18,2.63.38,5.62.89,8.71.42,2.59.86,5.15,1.3,7.7,2.55,14.82,4.95,28.82,3.25,42.59a19.17,19.17,0,0,0,0,4.9,19.89,19.89,0,0,0,3.59,9.55,17.09,17.09,0,0,0,13.94,6.95,20,20,0,0,0,2.66-.18,147.73,147.73,0,0,1,19.89-1.16c6.14,0,12.24.23,18.7.47l3.63.14c.91,0,1.82.05,2.72.05a99.7,99.7,0,0,0,15.79-1.36h.05c4.83-.8,9.84-1.51,14.69-2.19,9.33-1.32,19-2.68,28.62-4.84,5.65-1.27,17.4-3.9,20.37-18.76.21-1,.73-3.56,7.37-6.93a8.7,8.7,0,0,1,10.83,1.69,13.89,13.89,0,0,1,4.51,7.37c2.54,10.34,10.58,16.5,21.53,16.5l.93,0c.87,0,1.82,0,2.87,0,1.67,0,3.34,0,5.12.06s3.69.06,5.59.06c2.68,0,4.93-.06,7.08-.2,13.59-.8,27.3-1.95,40.56-3.06l2.76-.23a16.24,16.24,0,0,0,11.55-6.25,16.91,16.91,0,0,0,3.23-13.15,40.89,40.89,0,0,0-2.36-8.26,49.85,49.85,0,0,1,.34-38.57c.08-.21.34-.72.55-1.13,1.56-3.09,4.81-9.53,2.4-17.64a14.07,14.07,0,0,0-1.62-3.55A20.76,20.76,0,0,0,393.31,337l-.57-.19c-1.56-.67-3-1.24-4.47-1.79-1.25-.48-2.43-.93-3.49-1.39-21.25-9.12-33.81-24.74-38.42-47.78-2.25-11.37-1.45-20.7,2.53-29.33,5.41-11.71,10.33-21,20.07-25.28l.08,0c3.37-1.51,9.27-5.18,10.83-12.81.68-3.32.91-9.86-5.13-16.37-5.38-5.82-8.46-12.81-9.7-22-1.89-14.35-.6-24.67,4.19-33.45,4.6-8.42,9.71-17.17,17.2-23.42,2.5-2.09,5.17-4.08,8-6.17,2.12-1.58,4.32-3.21,6.51-4.94l.16-.13c10-7.82,6.68-17.37,5.51-19.93h0a17.11,17.11,0,0,0-13.95-9.64h-.1l-2.49-.17c-3.93-.28-8-.56-12.25-.56Z"/><path class="cls-1" d="M384.14,14a74.58,74.58,0,0,1,19.18,2.44,24.11,24.11,0,0,0,6.3.73c3.16,0,6.32-.39,9.48-.44h.39c3.39,0,6.53.69,8.8,3.25a121.89,121.89,0,0,0,15.45,14.94c2.41,1.9,3,4.81,1.4,7.78-.91,1.69-1.67,3.46-2.68,5.08a59.63,59.63,0,0,0-9,34.26,47,47,0,0,1-.63,6.22,99.6,99.6,0,0,0-21.95-2.06c-5.62,0-11.22.25-16.81.37h-1.29c-3.86,0-7.73-.33-11.6-.39-1.94,0-3.95-.25-5.9-.25a13.85,13.85,0,0,0-4.1.52c-7.78,2.43-15.65,2.94-23.54,2.94-5.81,0-11.63-.28-17.44-.28h-.45c-14.83,0-29.46,0-44.25,3.64a81,81,0,0,1-19.26,2.13A159.88,159.88,0,0,1,244,93.08a120.94,120.94,0,0,0-16.78-1.24A84.76,84.76,0,0,0,200,96.09c-6.8,2.27-13.64,2.65-20.91,2.73h-2.62c-6.13,0-12.3-.19-18.46-.19-11.53,0-23,.67-34.26,4.5a4.23,4.23,0,0,1-1.36.25c-2,0-3.07-1.89-3.86-3.8-.37-.87-.92-2-.67-2.74,2.59-8.17-1.88-14-7-19-13-12.63-19.24-29.68-29.52-44.07-1.36-1.9-.14-3.63,1.57-4.79A18.47,18.47,0,0,1,93.58,26H95.3c6.64,0,13.28-.24,19.92-.24,2.44,0,4.89,0,7.33.12q3.26.12,6.5.12c16.07,0,32-2,47.89-3.95a229.77,229.77,0,0,1,27.69-1.67,236.44,236.44,0,0,1,23.87,1.22,275.58,275.58,0,0,0,27.85,1.61,153.3,153.3,0,0,0,25.24-1.95c5.65-.95,11.47-1,17.22-1.26,15.82-.64,31.66-1,47.47-1.78a124.37,124.37,0,0,0,18.58-2.13A96.76,96.76,0,0,1,384.14,14m0-14a109.52,109.52,0,0,0-22.06,2.34,110.69,110.69,0,0,1-16.47,1.87c-9.31.45-18.83.77-28,1.08-6.32.21-12.87.43-19.32.7l-2.62.09a124.12,124.12,0,0,0-16.35,1.34,137.71,137.71,0,0,1-22.93,1.76,260.58,260.58,0,0,1-26.43-1.54c-8.45-.85-16.95-1.29-25.29-1.29a246.93,246.93,0,0,0-29.37,1.77l-2.15.26C157.91,10.23,143.56,12,129.05,12c-2,0-4.05,0-6-.11-2.41-.09-5-.13-7.83-.13-3.44,0-6.88.06-10.21.12S98.5,12,95.3,12H93.58A32.4,32.4,0,0,0,75,17.46a18.32,18.32,0,0,0-8,11.82A16.7,16.7,0,0,0,69.9,42a181.35,181.35,0,0,1,9.63,15.69c5.88,10.33,12,21,21.53,30.29,2.89,2.8,3.43,4,3.52,4.27a2.2,2.2,0,0,1-.1.41,17.14,17.14,0,0,0,1,12.16l.08.19c4.49,10.81,12.45,12.42,16.79,12.42a18.31,18.31,0,0,0,5.89-1c9.65-3.3,20-3.75,29.73-3.75,3,0,6.06,0,9,.09s6.26.1,9.43.1h2.76c7.42-.08,16.1-.41,25.21-3.46a70.77,70.77,0,0,1,22.78-3.52A105.3,105.3,0,0,1,242,107a173.33,173.33,0,0,0,24.23,1.94,94.13,94.13,0,0,0,22.59-2.53c12.94-3.17,26.22-3.2,40.28-3.24h1.09c2.74,0,5.48.07,8.38.14s6,.14,9.06.14c7.47,0,17.3-.4,27.33-3.45h.31c.62,0,1.44,0,2.32.1s2.16.13,3.38.15c1.53,0,3.13.1,4.82.18,2.24.1,4.55.21,7,.21l1.59,0c2,0,3.91-.1,5.87-.15,3.68-.11,7.15-.21,10.64-.21a84.69,84.69,0,0,1,18.9,1.73,14.31,14.31,0,0,0,3,.33,14,14,0,0,0,13.92-12.5c.07-.61.15-1.22.24-1.86a34.6,34.6,0,0,0,.47-6.32,45.44,45.44,0,0,1,6.87-26.39c1-1.62,1.78-3.18,2.4-4.43.25-.49.49-1,.75-1.47a19.9,19.9,0,0,0-5.06-25.35,106.35,106.35,0,0,1-13.66-13.25c-4.69-5.28-11.17-8-19.28-8h-.61c-1.82,0-3.49.13-5.11.24s-2.92.19-4.15.19a11.26,11.26,0,0,1-2.72-.26A88.93,88.93,0,0,0,384.14,0Z"/><path class="cls-1" d="M293.82,408.61c5.06,0,8,1.84,10.48,6.2,3.13,5.54,5.61,11.44,5.44,17.68-.22,8.39,4.77,11.95,11.21,14.86a6.92,6.92,0,0,0,1.33.55c19.21,4.05,37.81,10.66,57.46,13A247.9,247.9,0,0,1,410.66,467c11.14,2.78,22.09,6.36,33.12,9.58a5.47,5.47,0,0,0,1.55.24,3.37,3.37,0,0,0,3.17-2.16,4,4,0,0,0-1.45-5.1c-6.39-4.43-13.91-6.29-21.15-8.74-17.34-5.88-35.37-8.64-53.3-11.89a292.29,292.29,0,0,1-47.07-12.4c-.31-.11-.4-.84-1-2.34a121,121,0,0,0,12.86.65c15.12,0,29.92-2.34,44.82-2.78,2.4-.07,4.81,0,7.21-.13.84-.05,1.67-.07,2.49-.07a33.92,33.92,0,0,1,21.58,7.24c12.7,9.77,27.68,15.25,42.92,19.8a42.14,42.14,0,0,0,12.09,1.7,60.35,60.35,0,0,0,12.14-1.34c6.56-1.35,13.05-3,19.61-4.35a16.1,16.1,0,0,1,3.09-.33,8.49,8.49,0,0,1,8,4.82c12.8,23.23,35.21,29.48,59.06,33.13a16.48,16.48,0,0,0,2.43.2h.44c.75,0,1.47,0,2.14,0,13,0,13.36,5.19,10.74,18A56.25,56.25,0,0,1,570.7,539.4c-1.93,1.94-4.41,4.07-2.63,7.41a5.48,5.48,0,0,0,5.16,2.76,12,12,0,0,0,3.8-.69,14.32,14.32,0,0,0,2.64-1.14c9.77-5.63,20.1-6.88,30.58-6.88,6.19,0,12.44.44,18.66.65,6.4.23,12,3.52,17.74,5.74,13,5,25.86,10.33,37.76,17.7a64,64,0,0,0,34.39,9.76,81.82,81.82,0,0,0,16.71-1.81A22.5,22.5,0,0,0,748.89,565c.81-1,1.67-2.81,1.29-3.76a2.37,2.37,0,0,0-2.35-1.65,6.35,6.35,0,0,0-2.4.59,77,77,0,0,1-9.37,3.66,8.91,8.91,0,0,1-2.3.32,8,8,0,0,1-7.71-6.16c-1.95-7.13-.34-13.41,5.28-18.27,3.26-2.82,6.8-4.54,10.63-4.54a14.67,14.67,0,0,1,6.65,1.69c1.71.87,3.28,2.05,5.06,2.74a5.51,5.51,0,0,0,2,.4,4.23,4.23,0,0,0,3.91-2.81c.77-1.72.68-3.87,1.61-5.47,2.53-4.33,6.09-7.54,11.46-7.54,2.21,0,4.45-.17,6.66-.17,4,0,7.84.52,11.3,3.41,4.23,3.54,7.38,7.54,7,13.46-.19,2.87-.42,5.75-.34,8.62.08,2.52,1.1,4.64,3.87,5.35.92.23,1.87.39,2.81.58,5.62,1.14,10.14,3.95,10.91,9.91,1,7.52-1,14.26-7.72,18.88-5.07,3.46-10.8,3.56-16.6,3.61-8.38.06-8.38.1-11,7.4-2.48,7-5.79,10-11.61,10a26,26,0,0,1-4.82-.52c-4.93-1-8.71-3.9-12.58-6.68-2.33-1.67-2.16-5.53.06-7.6,2.76-2.59,7.07-3.37,8.63-7.31a3.79,3.79,0,0,0,.12-2.74,3,3,0,0,0-2.07-1.37l-.17,0a72.23,72.23,0,0,0-11,3.12,69.12,69.12,0,0,1-26.9,5.13,111.83,111.83,0,0,1-19.68-1.93c-17.29-3.08-33.08-9.35-48.31-17.73-6.27-3.46-13-6-19.62-9a38.39,38.39,0,0,0-15.77-3.13,68.73,68.73,0,0,0-12.52,1.3c-11.28,2.12-22.39,5.25-33.5,8.2-2.61.7-5.11,1.69-7.67,1.69a8.76,8.76,0,0,1-4.75-1.38,3.42,3.42,0,0,0-1.82-.51,6.78,6.78,0,0,0-3.57,1.32c-2.8,1.85-5.69,3.59-8.35,5.63a63.51,63.51,0,0,1-30.22,12.45,113.73,113.73,0,0,0-11.22,2.41c-1.34.34-2.81,1.35-2.28,2.9a4.85,4.85,0,0,0,2.76,2.91c5.11,1.21,10.51,1.45,13.87,6.5,1.45,2.17,1.48,4.83-.66,6.28-7.74,5.24-15.84,8.63-24.52,8.63a35.12,35.12,0,0,1-12.12-2.21c-8.54-3.12-17.45-5.27-25-10.78-4-2.92-7.7-5.61-8.11-11.09-.25-3.34-2.52-4.77-5.8-5.21q-8.53-1.14-17-2.78c-7.59-1.49-14.87-3.71-20.7-9.29a31,31,0,0,0-6-3.9,3.51,3.51,0,0,0-1.75-.5,3.19,3.19,0,0,0-2.56,4.87c2.52,3.49,5.07,7,7.77,10.33,2.25,2.81,1.82,5.27-.64,7.52-1.76,1.61-3.87,2.86-5.59,4.52-4.77,4.6-7.43,6.73-10.22,6.73s-5.54-2-10.55-5.7c-7.6-5.6-15.8-10.88-21.53-19,8-9.92,15.74-19.61,23.56-29.25a4.53,4.53,0,0,1,3.62-1.85,7.1,7.1,0,0,1,2.82.67c25.52,11.2,52.31,18.69,78.88,26.81,2.19.67,4.27,1.86,6.55,1.86a6.38,6.38,0,0,0,1.75-.25,2.86,2.86,0,0,0,1.81-4.33,4.18,4.18,0,0,0-2-1.94c-12.08-4.57-23.45-10.67-36-14.27-14.69-4.2-28.79-10.48-43.16-15.8-16.18-6-32.44-11.75-48.55-17.9-27.58-10.52-53.06-24.54-74.19-45.59-2-2-4.42-3.74-6.31-5.89-2.71-3.08-5.45-5-9-5a13.49,13.49,0,0,0-4.78,1,23.06,23.06,0,0,1-8.18,1.33,59.72,59.72,0,0,1-9-.84c-9-1.36-15.42-7.76-16.43-15.74-.63-4.91,1.83-8.64,6.64-9.39,12.79-2,25.58-4.06,38.43-5.58a53,53,0,0,1,6.16-.42,23.35,23.35,0,0,1,10.72,2.32,5,5,0,0,0,2.2.58c2.42,0,3.78-2.44,2.9-5.91a31.28,31.28,0,0,1-1.18-11.36c.68-6,4-10.57,9.23-11.47a34.26,34.26,0,0,1,5.77-.58m0-14a47.8,47.8,0,0,0-8.16.78c-11.2,1.95-19.35,11.25-20.75,23.71-.07.65-.13,1.29-.16,1.93h-.57a65.06,65.06,0,0,0-7.81.52c-11.8,1.4-23.62,3.25-35,5l-3.89.61c-12.25,1.91-20,12.42-18.38,25,1.82,14.35,13.16,25.54,28.21,27.82a73,73,0,0,0,11.07,1,37.36,37.36,0,0,0,11.77-1.75,51.49,51.49,0,0,0,4.68,4.46c.75.65,1.46,1.27,2,1.78,20.35,20.27,46.22,36.21,79.08,48.75,8.32,3.18,16.76,6.28,25,9.3-4.56,5.65-9.09,11.27-13.82,17.16l-6.38,7.94a14,14,0,0,0-.51,16.87c6.26,8.84,14.37,14.7,21.52,19.87l3.13,2.27c5.88,4.33,11.44,8.43,18.85,8.43,8.91,0,15-5.91,19.95-10.66.28-.27,1-.81,1.63-1.28,1-.79,2.34-1.76,3.67-3a20.65,20.65,0,0,0,5.15-7.15c2.26.61,4.48,1.1,6.62,1.52,4.26.83,8.61,1.58,13,2.24,2.77,7.45,8.56,11.66,12.35,14.42,7.63,5.55,15.82,8.31,23.06,10.74,1.88.64,3.66,1.24,5.4,1.87a49.27,49.27,0,0,0,16.92,3.06c10.82,0,21.41-3.61,32.37-11a18.08,18.08,0,0,0,6.31-22.19,75.83,75.83,0,0,0,22.12-11.74c1.23-.95,2.67-1.9,4.21-2.9a22.83,22.83,0,0,0,5.75.73,33,33,0,0,0,9.74-1.72c.51-.15,1-.3,1.52-.43l5-1.35c9.46-2.53,18.39-4.93,27.46-6.63a54.83,54.83,0,0,1,9.94-1.06,24.53,24.53,0,0,1,10.1,1.93c1.92.85,3.84,1.67,5.69,2.46a140.32,140.32,0,0,1,12.85,6c17.83,9.82,35,16.12,52.6,19.26a125.49,125.49,0,0,0,22.14,2.14,88.77,88.77,0,0,0,16.37-1.47,18,18,0,0,0,6.76,9.6l.82.59c4.31,3.11,9.66,7,17.25,8.45a38.85,38.85,0,0,0,7.49.78c7.87,0,18.27-3.07,24.08-17.37,6.48-.07,14.9-.51,23-6,10.6-7.23,15.47-18.68,13.72-32.23-.63-4.84-3.57-15.81-17.25-20.55l0-.22.06-1c1-14.32-8.78-22.46-12-25.13-7.15-6-15-6.67-20.27-6.67-1.37,0-2.64.05-3.86.09-1,0-2,.08-2.81.08-5.3,0-15,1.67-22.19,12.34a27.48,27.48,0,0,0-8.48-1.35c-7,0-13.7,2.68-19.8,7.95-9.16,7.93-12.75,19.22-10,31.14A49.6,49.6,0,0,1,691.78,553c-12.93-8-26.92-13.79-40.11-18.86-1.17-.45-2.44-1-3.79-1.59-4.92-2.14-11-4.81-18.48-5.07-2-.07-4-.16-6.06-.26-4.24-.19-8.63-.4-13.09-.4a98.57,98.57,0,0,0-15,1,71.66,71.66,0,0,0,4.55-14.42c1.49-7.26,3.74-18.22-3.11-26.61-6-7.32-15-8.17-21.34-8.17-.82,0-1.69,0-2.59.05l-.3,0c-31.43-4.8-42-13.53-48.92-26.05a22.57,22.57,0,0,0-20.23-12.06,30.08,30.08,0,0,0-5.84.6c-3.64.73-7.21,1.56-10.66,2.36-3.12.72-6.06,1.4-9,2a46.41,46.41,0,0,1-9.32,1.05,28,28,0,0,1-8.09-1.12c-13.28-4-27.13-8.82-38.39-17.48a47.7,47.7,0,0,0-30.11-10.14c-1.06,0-2.15,0-3.24.09s-2.3.06-3.59.07c-1,0-2.13,0-3.28.05-7.05.2-14,.81-20.74,1.39-8.18.71-15.91,1.38-23.67,1.38a106.15,106.15,0,0,1-11.36-.57,12.84,12.84,0,0,0-1.51-.08,13.78,13.78,0,0,0-2.48.22,60.77,60.77,0,0,0-5.5-12.49c-5-8.83-12.62-13.31-22.67-13.31Z"/><path class="cls-1" d="M532.92,606.24a7.2,7.2,0,0,1,2.23.38c12.17,4,13.23,7.56,5.94,18.28-4.18,6.14-10.12,10-15.76,14.46-4.42,3.48-55.91,26.14-67.56,26.14h-.14c-16.52-5.93-27.76-13.13-20.75-30.92,2.58-4.41,8-9.19,13.08-9.72A105.57,105.57,0,0,1,460.7,624a25.52,25.52,0,0,1,7,.85c1.78.09,3.55.13,5.29.13,19.51,0,36.85-5.59,53-15.65,2.23-1.39,4.26-3.11,6.95-3.11m0-14c-6.42,0-11,3-13.5,4.67l-.86.56C504,606.58,489.06,611,473,611c-1.08,0-2.18,0-3.28-.06a40.93,40.93,0,0,0-9-.92,100.19,100.19,0,0,0-10.8.76l-1.4.15c-10.29,1.07-19.32,9.09-23.7,16.55a14.17,14.17,0,0,0-.95,2c-4,10-4.12,19.17-.5,27.15,5.47,12.07,18,17.94,29.55,22.08a13.94,13.94,0,0,0,4.52.82h.35c2.88,0,10.54,0,41.8-12.81,2.92-1.2,28.69-11.82,34.41-16.32.94-.74,1.89-1.46,2.84-2.18,5.21-4,11.12-8.48,15.84-15.41,3.07-4.51,9.45-13.89,6-24.11s-14-13.67-19.11-15.34a21.11,21.11,0,0,0-6.62-1.09Z"/><path class="cls-2" d="M513.51,223.61c25.4,1.5,58.7,17.75,69.75,35.56"/><path class="cls-1" d="M292,557.24c.67,0,1.37,0,2.1,0,3,.08,7.63,1.68,12.08,5.11C324,576.13,342.05,589.49,360,603c1.91,1.44,3.62,3.17,5.61,4.48,15.25,10,10.66,10,1.67,19.39-1,1-2,2.12-3,3.07-2.06,1.82-3.61,2.73-5.25,2.73-1.44,0-2.94-.69-4.92-2.06-12.57-8.73-25.17-17.41-37.57-26.37a99.78,99.78,0,0,0-14.61-9c-6.94-3.4-12.81-8.31-18.24-13.78a16.66,16.66,0,0,1-4.89-11.58c-.36-8.7,3-12.61,13.24-12.61m0-14v0c-3.38,0-13.65,0-20.83,7.48-4.59,4.8-6.74,11.43-6.4,19.72a30.5,30.5,0,0,0,9,20.86c7.53,7.57,14.52,12.81,22,16.48a86.1,86.1,0,0,1,12.58,7.82c10.69,7.72,21.66,15.33,32.26,22.69l5.51,3.82c2.82,2,7.23,4.57,12.91,4.57,7.48,0,12.61-4.54,14.54-6.26,1.31-1.16,2.41-2.32,3.29-3.26l.58-.62c1.16-1.22,2.26-2.27,3.32-3.29,4-3.88,9.58-9.2,8.77-17.86-.9-9.6-9-14.92-16.23-19.62a23.4,23.4,0,0,1-1.88-1.53c-.86-.73-1.83-1.56-3-2.42q-8-6-16-12c-12.39-9.28-25.21-18.88-37.64-28.47-6.33-4.89-13.65-7.81-20.1-8-.9,0-1.79-.06-2.63-.06Z"/><polyline class="cls-2" points="107.89 107.71 90.19 119.82 75.89 136.57 55.6 145.17 37.89 157.28 19.11 167.94 7 187.69"/><path class="cls-5" d="M546.59,173.94c-.39-.77-1.69-.89-2.9-.27s-1.89,1.73-1.5,2.49,1.34.54,2.55-.07S547,174.7,546.59,173.94Z"/><path class="cls-5" d="M600.45,195.84c-.39-.76-1.68-.88-2.9-.27s-1.89,1.74-1.5,2.5,1.34.54,2.56-.07S600.84,196.61,600.45,195.84Z"/></g></g></svg>