<svg xmlns="http://www.w3.org/2000/svg" width="412.5629" height="19.5354" viewBox="0 0 412.5629 19.5354"><path d="M2,17.5354c9.8436-1.36,18.3361-3.66,23.3028-8.4149,3.4282,5.1728,8.5487,6.7516,16.83,1.6182,2.6866,6.0934,5.7117,7.6666,18.1244-3.56.87,9.7,11.9343,7.4294,20.83,1.6183,2.5472,8.8074,11.4708,5.8878,22.0082,0,.1507,11.6613,12.318,4.6262,23.3028-1.6183,1.4435,11.15,14.9758,5.7613,27.8339,1.2946,3.2326,6.3666,10.0151,4.0176,17.4771,0,.9082,11.4219,11.9735,3.8512,21.361-1.2946,4.5475,9.2088,12.4923,7.6823,21.3609,3.2365,1.5714,10.3151,8.0136,4.7444,14.8879-1.2946,3.02,9.2021,12.5119,2.8585,21.3609-1.9419,2.4717,7.5458,10.8568,2.2933,18.7717-1.9419,2.521,10.4306,11.5375,7.8065,21.361,3.56,2.5761,5.6883,9.1309.8652,15.5352-3.56,1.8271,8.1539,9.6508,4.08,17.4771,0,3.3205,8.82,12.8416,2.0149,21.3609-2.2656,2.9061,8.4661,10.8387,3.36,18.1245,0,.3263,9.8943,12.8346,3.1128,22.0082-.971,1.7215,6.5582,6.8982,5.3864,12.946,2.2656,2.6752,4.6,7.0461,3.7234,12.2987,0" fill="none" stroke="#010101" stroke-linecap="round" stroke-linejoin="round" stroke-width="4"/></svg>