<svg xmlns="http://www.w3.org/2000/svg" width="233.3187" height="15.1203" viewBox="0 0 233.3187 15.1203"><path d="M2,13.12c9.8436-1.36,18.3361-3.66,23.3028-8.4149,3.4282,5.1729,8.5487,6.7517,16.83,1.6183,2.6866,6.0934,7.7117,9.6666,20.1244-1.56.87,9.7,9.9343,5.4294,18.83-.3818,2.5472,8.8074,7.4708,5.8878,18.0082,0,.1507,11.6613,10.318,4.6263,21.3028-1.6182,1.4435,11.15,20.9758,5.7613,33.8339,1.2946,3.2326,6.3666,10.0151,4.0175,17.4771,0,.9082,11.4219,7.9735,3.8511,17.361-1.2946,4.5475,9.2087,14.4923,3.6823,23.3609-.7635,1.5714,10.3151,12.0136,8.7444,18.8879,2.7054" fill="none" stroke="#010101" stroke-linecap="round" stroke-linejoin="round" stroke-width="4"/></svg>