<svg id="Layer_1" data-name="Layer 1" xmlns="http://www.w3.org/2000/svg" viewBox="0 0 430 22.73"><defs><style>.cls-1{fill:none;stroke:#010101;stroke-linecap:round;stroke-linejoin:round;stroke-width:4px;}</style></defs><path class="cls-1" d="M3.54,16.81C18,15.35,26.86,9.23,26.86,9.23c-3.77,13.61,15.88,1.1,15.88,1.1C39.76,24,61.2,7.55,61.2,7.55,58,23,77.67,9.23,77.67,9.23c-1.78,14.8,22-.82,22-.82-6,20,23.43-1,23.43-1-2,13.05,27.78,0,27.78,0-2.74,12.77,14.64,3.89,17.67,1.21-3.42,18.78,20.84-1.21,20.84-1.21-1.59,16.82,21.44,4.21,21.44,4.21-3,11.22,14.89-.33,14.89-.33,2.58,11.94,21.43-2.06,21.43-2.06C249.37,23,266,6.85,266,6.85c-3.15,10.83,21.47,4.44,21.47,4.44C290.25,17,303,8.62,303,8.62c-4.77,14,17.27-1.21,17.27-1.21-1.59,10.66,21.43-2.64,21.43-2.64-3.37,15.09,17.67.91,17.67.91-6,14.78,22.43-.91,22.43-.91-.4,7.35,12.69,2.78,12.69,2.78.47,4,12.12.6,12.12.6,2.95,3.88,20.84,1.59,20.84,1.59"/></svg>